<svg width="41" height="32" viewBox="0 0 41 32" fill="none" xmlns="http://www.w3.org/2000/svg">
<rect x="0.5" y="0.5" width="40" height="31" rx="5.5" fill="white" stroke="#E4E3E6"/>
<path fill-rule="evenodd" clip-rule="evenodd" d="M20.4995 22.2082C19.1756 23.3255 17.4582 24 15.5816 24C11.3944 24 8 20.6421 8 16.5C8 12.3579 11.3944 9 15.5816 9C17.4582 9 19.1756 9.6745 20.4995 10.7918C21.8235 9.6745 23.5409 9 25.4175 9C29.6047 9 32.9991 12.3579 32.9991 16.5C32.9991 20.6421 29.6047 24 25.4175 24C23.5409 24 21.8235 23.3255 20.4995 22.2082Z" fill="#ED0006"/>
<path fill-rule="evenodd" clip-rule="evenodd" d="M20.5 22.2078C22.1298 20.8322 23.1632 18.7855 23.1632 16.5C23.1632 14.2145 22.1298 12.1678 20.5 10.7922C21.824 9.67464 23.5415 9 25.4184 9C29.6056 9 32.9999 12.3579 32.9999 16.5C32.9999 20.6421 29.6056 24 25.4184 24C23.5415 24 21.824 23.3254 20.5 22.2078Z" fill="#F9A000"/>
<path fill-rule="evenodd" clip-rule="evenodd" d="M20.4976 22.2159C22.1276 20.8403 23.1612 18.7934 23.1612 16.5077C23.1612 14.2221 22.1276 12.1752 20.4976 10.7996C18.8676 12.1752 17.834 14.2221 17.834 16.5077C17.834 18.7934 18.8676 20.8403 20.4976 22.2159Z" fill="#FF5E00"/>
</svg>
