<svg xmlns="http://www.w3.org/2000/svg" xmlns:xlink="http://www.w3.org/1999/xlink" fill="none" version="1.1" width="24" height="24" viewBox="0 0 24 24"><defs><clipPath id="master_svg0_194_42290"><rect x="0" y="0" width="24" height="24" rx="0"/></clipPath></defs><g clip-path="url(#master_svg0_194_42290)"><g><g><path d="M16.285715612106323,6.28571Q16.285715612106323,6.39092,16.280555612106323,6.496Q16.275385612106323,6.60109,16.265075612106322,6.70579Q16.254765612106326,6.81049,16.239325612106324,6.91456Q16.223885612106322,7.01863,16.203365612106325,7.12182Q16.182835612106324,7.225,16.157275612106325,7.32706Q16.131715612106323,7.42911,16.101175612106324,7.52979Q16.070635612106322,7.63047,16.035185612106325,7.72953Q15.999745612106324,7.82859,15.959485612106324,7.92579Q15.919225612106324,8.02298,15.874235612106324,8.118089999999999Q15.829255612106323,8.2132,15.779665612106323,8.30598Q15.730065612106323,8.398769999999999,15.675975612106324,8.48901Q15.621885612106324,8.57925,15.563435612106323,8.666730000000001Q15.504985612106324,8.75421,15.442315612106324,8.838709999999999Q15.379645612106323,8.923210000000001,15.312905612106324,9.00454Q15.246155612106323,9.08587,15.175505612106324,9.163820000000001Q15.104845612106324,9.24178,15.030455612106323,9.31617Q14.956065612106324,9.39056,14.878105612106324,9.46122Q14.800155612106323,9.53187,14.718825612106324,9.59862Q14.637495612106324,9.66536,14.552995612106322,9.72803Q14.468495612106324,9.790700000000001,14.381015612106324,9.84915Q14.293535612106323,9.9076,14.203295612106324,9.96169Q14.113055612106322,10.01578,14.020275612106325,10.06538Q13.927485612106324,10.11497,13.832375612106322,10.15995Q13.737265612106324,10.20493,13.640075612106322,10.2452Q13.542875612106323,10.28546,13.443815612106324,10.3209Q13.344755612106322,10.35635,13.244075612106323,10.38689Q13.143395612106323,10.41743,13.041345612106323,10.44299Q12.939285612106323,10.46855,12.836105612106323,10.48908Q12.732915612106323,10.5096,12.628845612106323,10.52504Q12.524775612106323,10.54048,12.420075612106324,10.55079Q12.315375612106322,10.5611,12.210285612106324,10.56627Q12.105205612106325,10.57143,11.999995612106323,10.57143Q11.894795612106323,10.57143,11.789705612106324,10.56627Q11.684625612106323,10.5611,11.579925612106322,10.55079Q11.475225612106323,10.54048,11.371155612106323,10.52504Q11.267085612106323,10.5096,11.163895612106323,10.48908Q11.060715612106323,10.46855,10.958655612106323,10.44299Q10.856595612106323,10.41743,10.755925612106324,10.38689Q10.655245612106324,10.35635,10.556185612106322,10.3209Q10.457125612106324,10.28546,10.359925612106323,10.2452Q10.262725612106323,10.20494,10.167625612106324,10.15995Q10.072515612106322,10.11497,9.979725612106323,10.06538Q9.886945612106324,10.01578,9.796705612106322,9.96169Q9.706465612106323,9.9076,9.618985612106323,9.84915Q9.531505612106324,9.790700000000001,9.447005612106324,9.72803Q9.362495612106324,9.66536,9.281175612106324,9.59862Q9.199845612106323,9.53187,9.121885612106324,9.46122Q9.043935612106324,9.39056,8.969545612106323,9.31617Q8.895145612106322,9.24178,8.824495612106324,9.163820000000001Q8.753845612106323,9.08587,8.687097612106323,9.00454Q8.620354612106324,8.923210000000001,8.557681612106323,8.838709999999999Q8.495009612106323,8.75421,8.436558612106323,8.666730000000001Q8.378107612106323,8.57925,8.324019612106323,8.48901Q8.269932612106324,8.398769999999999,8.220337612106324,8.305990000000001Q8.170742612106324,8.2132,8.125759612106323,8.118089999999999Q8.080777612106322,8.02298,8.040516612106323,7.92579Q8.000254612106323,7.82859,7.964810612106323,7.72953Q7.929367612106323,7.63047,7.8988266121063235,7.52979Q7.868286612106323,7.42911,7.842722612106323,7.32706Q7.817159612106323,7.225,7.796634412106323,7.12182Q7.776109312106323,7.01863,7.7606720121063235,6.91456Q7.745234712106323,6.81049,7.734922512106324,6.70579Q7.724610312106323,6.60109,7.719447942106323,6.496Q7.714285612106323,6.39092,7.714285612106323,6.28571Q7.714285612106323,6.18051,7.719447942106323,6.07542Q7.724610312106323,5.97034,7.734922512106324,5.86564Q7.745234712106323,5.76094,7.7606720121063235,5.65687Q7.776109312106323,5.5527999999999995,7.796634412106323,5.44961Q7.817159612106323,5.34643,7.842722612106323,5.24437Q7.868286612106323,5.14231,7.8988266121063235,5.04164Q7.929367612106323,4.9409600000000005,7.964810612106323,4.8419Q8.000254612106323,4.74284,8.040516612106323,4.64564Q8.080777612106322,4.548439999999999,8.125759612106323,4.45334Q8.170742612106324,4.35823,8.220337612106324,4.26544Q8.269932612106324,4.1726600000000005,8.324019612106323,4.08242Q8.378107612106323,3.9921800000000003,8.436558612106323,3.9047Q8.495009612106323,3.81722,8.557681612106323,3.73272Q8.620354612106324,3.6482099999999997,8.687097612106323,3.56689Q8.753845612106323,3.48556,8.824495612106324,3.4076Q8.895145612106322,3.32965,8.969545612106323,3.25526Q9.043935612106324,3.18086,9.121885612106324,3.11021Q9.199845612106323,3.03956,9.281175612106324,2.9728120000000002Q9.362495612106324,2.906069,9.447005612106324,2.8433960000000003Q9.531505612106324,2.780724,9.618985612106323,2.722273Q9.706465612106323,2.663822,9.796705612106322,2.609734Q9.886945612106324,2.555647,9.979725612106323,2.506052Q10.072515612106322,2.456457,10.167625612106324,2.411474Q10.262725612106323,2.366492,10.359925612106323,2.326231Q10.457125612106324,2.285969,10.556185612106322,2.250525Q10.655245612106324,2.2150819999999998,10.755925612106324,2.184541Q10.856595612106323,2.154001,10.958655612106323,2.128437Q11.060715612106323,2.102874,11.163895612106323,2.0823488Q11.267085612106323,2.0618237,11.371155612106323,2.0463864Q11.475225612106323,2.0309491,11.579925612106322,2.0206369Q11.684625612106323,2.0103247,11.789705612106324,2.00516233Q11.894795612106323,2,11.999995612106323,2Q12.105205612106325,2,12.210285612106324,2.00516233Q12.315375612106322,2.0103247,12.420075612106324,2.0206369Q12.524775612106323,2.0309491,12.628845612106323,2.0463864Q12.732915612106323,2.0618237,12.836105612106323,2.0823488Q12.939285612106323,2.102874,13.041345612106323,2.128437Q13.143395612106323,2.154001,13.244075612106323,2.184541Q13.344755612106322,2.2150819999999998,13.443815612106324,2.250525Q13.542875612106323,2.285969,13.640075612106322,2.326231Q13.737265612106324,2.366492,13.832375612106322,2.411474Q13.927485612106324,2.456457,14.020265612106323,2.506052Q14.113055612106322,2.555647,14.203295612106324,2.609734Q14.293535612106323,2.663822,14.381015612106324,2.722273Q14.468495612106324,2.780724,14.552995612106322,2.8433960000000003Q14.637495612106324,2.906069,14.718825612106324,2.9728120000000002Q14.800155612106323,3.03956,14.878105612106324,3.11021Q14.956065612106324,3.18086,15.030455612106323,3.25526Q15.104845612106324,3.32965,15.175505612106324,3.4076Q15.246155612106323,3.48556,15.312905612106324,3.56689Q15.379645612106323,3.6482099999999997,15.442315612106324,3.73272Q15.504985612106324,3.81722,15.563435612106323,3.9047Q15.621885612106324,3.9921800000000003,15.675975612106324,4.08242Q15.730065612106323,4.1726600000000005,15.779665612106323,4.26544Q15.829255612106323,4.35823,15.874235612106324,4.45334Q15.919215612106322,4.548439999999999,15.959485612106324,4.64564Q15.999745612106324,4.74284,16.035185612106325,4.8419Q16.070635612106322,4.9409600000000005,16.101175612106324,5.04164Q16.131715612106323,5.14231,16.157275612106325,5.24437Q16.182835612106324,5.34643,16.203365612106325,5.44961Q16.223885612106322,5.5527999999999995,16.239325612106324,5.65687Q16.254765612106326,5.76094,16.265075612106322,5.86564Q16.275385612106323,5.97034,16.280555612106323,6.07542Q16.285715612106323,6.18051,16.285715612106323,6.28571Z" fill="#666666" fill-opacity="1"/></g><g><path d="M11.999995612106323,2.75C10.047275612106324,2.75,8.464285612106323,4.332990000000001,8.464285612106323,6.28571C8.464285612106323,8.23844,10.047275612106324,9.82143,11.999995612106323,9.82143C13.952725612106324,9.82143,15.535715612106323,8.23844,15.535715612106323,6.28571C15.535715612106323,4.332990000000001,13.952725612106324,2.75,11.999995612106323,2.75ZM6.964285612106323,6.28571C6.964285612106323,3.50457,9.218855612106324,1.25,11.999995612106323,1.25C14.781145612106323,1.25,17.035685612106324,3.50457,17.035685612106324,6.28571C17.035685612106324,9.06686,14.781145612106323,11.3214,11.999995612106323,11.3214C9.218855612106324,11.3214,6.964285612106323,9.06686,6.964285612106323,6.28571Z" fill-rule="evenodd" fill="#666666" fill-opacity="1"/></g><g><path d="M21.571818424606324,21.14286C21.571818424606324,21.14286,3.0004184246063232,21.14286,3.0004184246063232,21.14286C3.0004184246063232,18.7619,4.8575584246063235,14,12.286128424606323,14C19.714718424606325,14,21.571818424606324,18.7619,21.571818424606324,21.14286Z" fill="#666666" fill-opacity="1"/></g><g><path d="M4.309998424606324,16.16605C5.867238424606324,14.50233,8.399858424606323,13.25,12.286118424606324,13.25C16.172418424606324,13.25,18.705018424606322,14.50233,20.262218424606324,16.16605C21.79991842460632,17.80881,22.321818424606324,19.7847,22.321818424606324,21.14286C22.321818424606324,21.55707,21.986018424606325,21.89286,21.571818424606324,21.89286C21.571818424606324,21.89286,3.0004184246063232,21.89286,3.0004184246063232,21.89286C2.5862044246063234,21.89286,2.2504184246063232,21.55707,2.2504184246063232,21.14286C2.2504184246063232,19.7847,2.772374424606323,17.80881,4.309998424606324,16.16605ZM3.814198424606323,20.39286C3.814198424606323,20.39286,20.758018424606323,20.39286,20.758018424606323,20.39286C20.602018424606324,19.43014,20.140418424606324,18.23092,19.167118424606322,17.19109C17.938618424606325,15.87862,15.828418424606323,14.75,12.286118424606324,14.75C8.743838424606324,14.75,6.6335984246063235,15.87862,5.405128424606323,17.19109C4.431848424606324,18.23092,3.970278424606323,19.43014,3.814198424606323,20.39286Z" fill-rule="evenodd" fill="#666666" fill-opacity="1"/></g></g></g></svg>