<svg xmlns="http://www.w3.org/2000/svg" xmlns:xlink="http://www.w3.org/1999/xlink" fill="none" version="1.1" width="200" height="200" viewBox="0 0 200 200"><defs><clipPath id="master_svg0_5030_19042"><rect x="0" y="0" width="200" height="200" rx="0"/></clipPath></defs><g clip-path="url(#master_svg0_5030_19042)"><g><path d="M100.0000125,163.49158630371093C91.4286125,163.49158630371093,83.1129125,161.81658630371095,75.2910125,158.50958630371093C67.7480125,155.31858630371096,60.8936125,150.69758630371092,55.1058125,144.90258630371093C43.1691625,133.01258630371092,36.4742355,116.84828630371094,36.507938385,99.99998630371094C36.4746284,83.15438630371094,43.1696725,66.99298630371094,55.1058125,55.10578630371094C66.9927125,43.17041630371094,83.1551125,36.47816470371094,100.0000125,36.51675415071094C116.8437125,36.497322103710935,133.0017125,43.18646630371094,144.90281249999998,55.10578630371094C156.8358125,66.99438630371094,163.52781249999998,83.15568630371094,163.49181249999998,99.99998630371094C163.5328125,116.84798630371094,156.8408125,133.01388630371093,144.90281249999998,144.90258630371093C133.0139125,156.84058630371095,116.8480125,163.53258630371096,100.0000125,163.49158630371093ZM100.0000125,46.278666303710935C70.3460125,46.31268630371093,46.3166425,70.34608630371093,46.287482499999996,99.99998630371094C46.3166325,129.65398630371095,70.3460125,153.68758630371093,100.0000125,153.72158630371092C129.65741250000002,153.69258630371093,153.6918125,129.65738630371095,153.7218125,99.99998630371094C153.6828125,70.34658630371094,129.6534125,46.317526303710935,100.0000125,46.278666303710935ZM100.0000125,142.98058630371094C97.3113125,142.96658630371093,95.13391250000001,140.79258630371095,95.11461249999999,138.10358630371093L95.11461249999999,130.80248630371094L94.3739125,130.61728630371096C91.6384125,129.97498630371092,89.0301125,128.87808630371094,86.6578125,127.37218630371093C84.8076125,126.26378630371094,83.1292125,124.89128630371094,81.6755125,123.29808630371093C79.90531250000001,121.26208630371094,80.1195125,118.17678630371094,82.1542125,116.40498630371094C84.1888125,114.63318630371094,87.2742125,114.84508630371094,89.0476125,116.87828630371094C89.45331250000001,117.34568630371093,90.4409125,118.20988630371093,91.8430125,119.09168630371094C94.4003125,120.68788630371094,97.1340125,121.49028630371093,99.98241250000001,121.49028630371093C103.3774125,121.49028630371093,106.4815125,120.28218630371094,108.2892125,118.27158630371093C109.3165125,117.22678630371094,109.8463125,115.79148630371094,109.7443125,114.32978630371093C109.4092125,111.26988630371093,106.8254125,109.05648630371094,98.6949125,104.83248630371094L96.81661249999999,103.87128630371093C90.5644125,100.62608630371093,87.0635125,98.34218630371095,84.7354125,95.97888630371094C82.2222125,93.43038630371095,80.9700125,90.67018630371093,80.5467125,86.75488630371095C80.1189125,82.84048630371095,81.3176125,78.92208630371094,83.8624125,75.91708630371093C86.3845125,72.81308630371095,90.1234125,70.51148630371094,94.3827125,69.43568630371094L95.1058125,69.25048630371094L95.1058125,61.913586303710936C95.2613125,59.32458630371094,97.4063125,57.30448630371094,100.0000125,57.30448630371094C102.5937125,57.30448630371094,104.7387125,59.32458630371094,104.8942125,61.913586303710936L104.8942125,69.21518630371094L105.6349125,69.39158630371094C108.3862125,70.04408630371094,110.9700125,71.13758630371095,113.3510125,72.63668630371095C116.0758125,74.33868630371094,117.6367125,75.91708630371093,118.3333125,76.71078630371093C120.0434125,78.75018630371093,119.8064125,81.78308630371095,117.8003125,83.53208630371094C115.7943125,85.28108630371094,112.7573125,85.10258630371094,110.9700125,83.13048630371094C110.1365125,82.27288630371095,109.1936125,81.52868630371094,108.1658125,80.91708630371093C105.7389125,79.35228630371094,102.9140125,78.51678630371094,100.02641249999999,78.50968630371094C96.64021249999999,78.50968630371094,93.5273125,79.71778630371094,91.7196125,81.73718630371093C90.69301250000001,82.78298630371094,90.1606125,84.21668630371093,90.2557125,85.67898630371093C90.5908125,88.73018630371094,93.1746125,90.95238630371094,101.3139125,95.16758630371095L103.1834125,96.12878630371094C109.4356125,99.37388630371095,112.9277125,101.66668630371093,115.2645125,104.02998630371094C117.7690125,106.57848630371093,119.0300125,109.33858630371094,119.4621125,113.24518630371094C119.8854125,117.13408630371094,118.7390125,120.88188630371094,116.1376125,124.08288630371094C113.4160125,127.30898630371094,109.7319125,129.57748630371094,105.6261125,130.55558630371092L104.8942125,130.74078630371093L104.8942125,138.08658630371093C104.8991125,140.79158630371094,102.7050125,142.98558630371093,100.0000125,142.98058630371094Z" fill="#060606" fill-opacity="1" style="mix-blend-mode:passthrough"/></g></g></svg>