<svg xmlns="http://www.w3.org/2000/svg" xmlns:xlink="http://www.w3.org/1999/xlink" version="1.1" width="24" height="24" viewBox="0 0 24 24"><defs><clipPath id="master_svg0_194_53337"><rect x="0" y="0" width="24" height="24" rx="0"/></clipPath></defs><g clip-path="url(#master_svg0_194_53337)"><g><path d="M3.991436875,17.5099046875C2.132526875,15.6456046875,1.091796875,13.4725046875,1.091796875,12.1776046875L1.091796875,11.8677046875C1.091796875,9.2517446875,5.325616875,3.0531946875,12.000896875,3.0531946875C13.945996875,3.0531946875,15.665296875,3.5713746875,17.142296875,4.3601046875L15.916196875,5.5862846875C14.693696875,5.0009246874999995,13.356296875,4.6946246875,12.000896875,4.6895646875C6.370706875,4.6895646875,2.728156875,10.0230146875,2.728156875,11.8677046875L2.728156875,12.1776046875C2.728156875,13.0797046875,3.603066875,14.8132046875,5.149976875,16.3503046875L3.991436875,17.5099046875ZM22.909996875,11.8546046875L22.909996875,12.1776046875C22.887096875,14.8743046875,18.742696875,20.9910046875,12.000896875,20.9910046875C9.685976875,20.9910046875,7.675436875,20.2394046875,6.023796875,19.1539046875L2.488156875,22.6906046875C2.169226875,23.0109046875,1.650733875,23.0109046875,1.331796875,22.6906046875C1.012029475,22.3711046875,1.012029475,21.8528046875,1.331796875,21.5332046875L21.513596875,1.3524686875C21.833196875,1.0324246875,22.351696875,1.0322243875,22.671496875,1.3520216875C22.991296875,1.6718186875,22.991096875,2.1903746875000003,22.671096875,2.5099246875L19.317596875,5.8633746875C21.604196875,7.8324646875,22.895796875,10.3644646875,22.909996875,11.8546046875ZM14.350696875,10.8291946875L10.806346875,14.3725046875C11.166296875,14.5590046875,11.567796875,14.6725046875,11.999796875,14.6725046875C13.461596875,14.6725046875,14.650696875,13.4834046875,14.650696875,12.0216046875C14.649096875,11.6056046875,14.546096875,11.1964046875,14.350696875,10.8291946875ZM21.273596875,11.8612046875C21.262696875,10.7190146875,20.115096875,8.647374687500001,18.157996875,7.0219246875L15.541996875,9.6390146875C16.006696875,10.3208346875,16.289296874999998,11.1357046875,16.289296874999998,12.0216046875C16.286796875,14.3884046875,14.368796875,16.3064046875,12.001996875,16.3088046875C11.115096875,16.3088046875,10.300156875,16.0263046875,9.618346875,15.5605046875L7.216156875,17.9626046875C8.565616875,18.7863046875,10.174706875,19.3536046875,12.001996875,19.3536046875C17.542696875,19.3536046875,21.256196875,14.2405046875,21.274696875,12.1699046875L21.274696875,11.8612046875L21.273596875,11.8612046875ZM12.000896875,9.3717446875C12.041296875,9.3717446875,12.078296875,9.3815546875,12.118696875,9.3837446875L13.485596875,8.016834687500001C13.011596875,7.8345546875,12.508696875,7.7392046875,12.000896875,7.7353746875C9.634086875,7.7377846875,7.716016875,9.6558546875,7.713616875,12.0226046875C7.713616875,12.5463046875,7.821616875,13.0437046875,7.993976875,13.5074046875L9.360886875,12.1405046875C9.360886875,12.1001046875,9.349976875,12.0630046875,9.349976875,12.0226046875C9.349976875,10.5608346875,10.539066875,9.3717446875,12.000896875,9.3717446875Z" /></g></g></svg>