<svg xmlns="http://www.w3.org/2000/svg" xmlns:xlink="http://www.w3.org/1999/xlink" fill="none" version="1.1" width="24" height="24" viewBox="0 0 24 24"><defs><clipPath id="master_svg0_194_37647"><rect x="0" y="0" width="24" height="24" rx="0"/></clipPath></defs><g clip-path="url(#master_svg0_194_37647)"><g><path d="M21,7.1048046875C21,7.644804687500001,20.937,8.2448046875,20.5995,8.7848046875C20.262,9.3248046875,19.7625,9.6848046875,19.2567,10.044804687500001C17.178800000000003,11.5699746875,15.0974,13.0899846875,13.0125,14.6048046875C12.8433,14.7248046875,12.4302,15.0248046875,11.9433,15.0248046875C11.4573,15.0248046875,11.0433,14.7248046875,10.875,14.6048046875C6.2247,11.084494687500001,3.7875,9.1448046875,3.5625,8.7848046875C3.1683,8.2448046875,3,7.7648046875,3,7.3448046875C3,6.7448046875,3.1125,6.3248046875,3.3942,5.9648046875C3.675,5.6048046875,4.0692,5.4248046875,4.575,5.4248046875L19.3692,5.4248046875C19.8192,5.4248046875,20.1567,5.6048046875,20.4942,5.9048046875C20.8317,6.2048046875,21,6.6248046875,21,7.1048046875ZM21,10.2248046875L21,18.7448046875C21,19.2248046875,20.8308,19.6448046875,20.55,19.9448046875C20.2125,20.304804687500003,19.875,20.4248046875,19.425,20.4248046875L4.6308,20.4248046875C4.1808,20.4248046875,3.7875,20.2448046875,3.5058,19.9448046875C3.1683,19.5848046875,3.0558001,19.2248046875,3.0558001,18.7448046875L3.0558001,10.2248046875C3.3375,10.5848046875,8.175,14.1848046875,9.075,14.9048046875C9.3567,15.1448046875,9.6942,15.3848046875,10.0317,15.6248046875C10.2567,15.8048046875,10.5942,15.9848046875,10.9875,16.164804687500002C11.3817,16.3448046875,11.775,16.4048046875,12.1125,16.4048046875C12.45,16.4048046875,12.8442,16.3448046875,13.2375,16.164804687500002C13.6317,15.9848046875,13.9692,15.8048046875,14.1942,15.6248046875C14.5308,15.3848046875,14.8125,15.1448046875,15.15,14.9048046875C16.275,14.0048046875,20.7192,10.5848046875,21,10.2248046875Z" fill="#666666" fill-opacity="1"/></g></g></svg>