<svg xmlns="http://www.w3.org/2000/svg" xmlns:xlink="http://www.w3.org/1999/xlink" fill="none" version="1.1" width="24" height="24" viewBox="0 0 24 24"><defs><clipPath id="master_svg0_194_63528"><rect x="0" y="0" width="24" height="24" rx="0"/></clipPath></defs><g clip-path="url(#master_svg0_194_63528)"><g><g><path d="M12,2.77197265625C9.15729,2.77197265625,6.25,5.20170265625,6.25,8.918522656250001C6.25,11.70037265625,7.38582,14.40957265625,8.72797,16.62937265625C9.93645,18.62807265625,11.27928,20.17597265625,12,20.94737265625C12.72072,20.17597265625,14.06355,18.62797265625,15.272,16.62937265625C16.6142,14.40957265625,17.75,11.70037265625,17.75,8.918522656250001C17.75,5.20170265625,14.8427,2.77197265625,12,2.77197265625ZM4.75,8.918522656250001C4.75,4.35948265625,8.34271,1.27197265625,12,1.27197265625C15.6573,1.27197265625,19.25,4.35948265625,19.25,8.918522656250001C19.25,12.08817265625,17.9655,15.07377265625,16.5556,17.40547265625C15.1405,19.74587265625,13.55812,21.49477265625,12.87312,22.20657265625C12.39281,22.70567265625,11.60719,22.70567265625,11.12688,22.20657265625C10.441880000000001,21.49477265625,8.8595,19.74587265625,7.44436,17.40547265625C6.0345200000000006,15.07377265625,4.75,12.08817265625,4.75,8.918522656250001Z" fill-rule="evenodd" fill="#14142B" fill-opacity="1"/></g><g><path d="M12,7.25C11.0335,7.25,10.25,8.0335,10.25,9C10.25,9.9665,11.0335,10.75,12,10.75C12.9665,10.75,13.75,9.9665,13.75,9C13.75,8.0335,12.9665,7.25,12,7.25ZM8.75,9C8.75,7.20507,10.20507,5.75,12,5.75C13.79493,5.75,15.25,7.20507,15.25,9C15.25,10.79493,13.79493,12.25,12,12.25C10.20507,12.25,8.75,10.79493,8.75,9Z" fill-rule="evenodd" fill="#14142B" fill-opacity="1"/></g></g></g></svg>