<svg xmlns="http://www.w3.org/2000/svg" xmlns:xlink="http://www.w3.org/1999/xlink" fill="none" version="1.1" width="24" height="24" viewBox="0 0 24 24"><defs><clipPath id="master_svg0_655_33538"><rect x="0" y="0" width="24" height="24" rx="0"/></clipPath></defs><g clip-path="url(#master_svg0_655_33538)"><g><path d="M22.032,20.2199296875L20.88,20.2199296875L20.88,7.1039296875C20.88,6.7199296875,20.652,6.3839296875,20.304,6.2159296875L14.556,3.2159296875C14.232,3.0719296875,13.872,3.0719296875,13.548,3.2159296875C13.188,3.3599296875,12.96,3.7079296875,12.972,5.6039296875L12.972,21.7199296875L11.82,21.7199296875L11.82,4.0079296875C11.82,2.0639296875,11.82,1.7759296875000001,11.388,1.6199296875C11.016,1.4639296875,10.608,1.4639296875,10.236,1.6199296875L3.66,5.0879296875C3.3120000000000003,5.2559296875,3.084,5.6159296875,3.084,5.9999296875L3.084,20.2319296875L1.932,20.2319296875C1.644,20.2319296875,1.5,20.3879296875,1.5,20.5319296875L1.5,22.1999296875C1.5,22.3439296875,1.644,22.4999296875,1.932,22.4999296875L22.032,22.4999296875C22.164,22.4999296875,22.44,22.3439296875,22.464,22.1999296875L22.464,20.5439296875C22.5,20.3639296875,22.188,20.2199296875,22.032,20.2199296875ZM8.532,18.1079296875C8.532,18.2759296875,8.4,18.4079296875,8.232,18.4079296875L6.612,18.4079296875C6.444,18.4079296875,6.312,18.2759296875,6.312,18.1079296875L6.312,16.7039296875C6.312,16.5359296875,6.444,16.4039296875,6.612,16.4039296875L8.268,16.4039296875C8.436,16.4039296875,8.568,16.5359296875,8.568,16.7039296875L8.532,18.1079296875ZM8.532,13.8719296875C8.532,14.0399296875,8.4,14.1719296875,8.232,14.1719296875L6.612,14.1719296875C6.444,14.1719296875,6.312,14.0399296875,6.312,13.8719296875L6.312,12.4439296875C6.312,12.2759296875,6.444,12.1439296875,6.612,12.1439296875L8.268,12.1439296875C8.436,12.1439296875,8.568,12.2759296875,8.568,12.4439296875L8.532,13.8719296875ZM8.532,9.6479296875C8.532,9.8159296875,8.4,9.9479296875,8.232,9.9479296875L6.612,9.9479296875C6.444,9.9479296875,6.312,9.8159296875,6.312,9.6479296875L6.312,8.2079296875C6.312,8.039929687499999,6.444,7.9079296875,6.612,7.9079296875L8.268,7.9079296875C8.436,7.9079296875,8.568,8.039929687499999,8.568,8.2079296875L8.532,9.6479296875ZM18,18.0959296875C18,18.2639296875,17.868,18.3959296875,17.7,18.3959296875L16.044,18.3959296875C15.876,18.3959296875,15.744,18.2639296875,15.744,18.0959296875L15.744,16.6799296875C15.744,16.5119296875,15.876,16.379929687500002,16.044,16.379929687500002L17.7,16.379929687500002C17.868,16.379929687500002,18,16.5119296875,18,16.6799296875L18,18.0959296875ZM18,13.8599296875C18,14.0279296875,17.868,14.1599296875,17.7,14.1599296875L16.044,14.1599296875C15.876,14.1599296875,15.744,14.0279296875,15.744,13.8599296875L15.744,12.4439296875C15.744,12.2759296875,15.876,12.1439296875,16.044,12.1439296875L17.7,12.1439296875C17.868,12.1439296875,18,12.2759296875,18,12.4439296875L18,13.8599296875ZM18,9.6359296875C18,9.8039296875,17.868,9.9359296875,17.7,9.9359296875L16.044,9.9359296875C15.876,9.9359296875,15.744,9.8039296875,15.744,9.6359296875L15.744,8.2079296875C15.744,8.039929687499999,15.876,7.9079296875,16.044,7.9079296875L17.7,7.9079296875C17.868,7.9079296875,18,8.039929687499999,18,8.2079296875L18,9.6359296875Z" fill="#666666" fill-opacity="1"/></g></g></svg>