<svg xmlns="http://www.w3.org/2000/svg" xmlns:xlink="http://www.w3.org/1999/xlink" fill="none" version="1.1" width="24" height="24" viewBox="0 0 24 24"><defs><clipPath id="master_svg0_194_007785"><rect x="0" y="0" width="24" height="24" rx="0"/></clipPath></defs><g clip-path="url(#master_svg0_194_007785)"><g><g><path d="M12,3.0606611750030517C12,3.0606611750030517,15.46967,6.5303311750030515,15.46967,6.5303311750030515C15.76256,6.823221175003051,16.23744,6.823221175003051,16.53033,6.5303311750030515C16.82322,6.237441175003052,16.82322,5.762561175003052,16.53033,5.469671175003052C16.53033,5.469671175003052,12.601040000000001,1.5403801750030517,12.601040000000001,1.5403801750030517C12.2691,1.2084373750030517,11.73091,1.2084321750030518,11.398959999999999,1.5403801750030517C11.398959999999999,1.5403801750030517,7.46967,5.469671175003052,7.46967,5.469671175003052C7.1767767,5.762561175003052,7.1767767,6.237441175003052,7.46967,6.5303311750030515C7.762563,6.823221175003051,8.237437,6.823221175003051,8.53033,6.5303311750030515C8.53033,6.5303311750030515,12,3.0606611750030517,12,3.0606611750030517Z" fill-rule="evenodd" fill="#0000FF" fill-opacity="1"/></g><g><path d="M12,2.2499999403953552C12.41421,2.2499999403953552,12.75,2.5857859403953554,12.75,2.9999999403953552C12.75,2.9999999403953552,12.75,14.999999940395355,12.75,14.999999940395355C12.75,15.414199940395354,12.41421,15.749999940395355,12,15.749999940395355C11.585786,15.749999940395355,11.25,15.414199940395354,11.25,14.999999940395355C11.25,14.999999940395355,11.25,2.9999999403953552,11.25,2.9999999403953552C11.25,2.5857859403953554,11.585786,2.2499999403953552,12,2.2499999403953552Z" fill-rule="evenodd" fill="#0000FF" fill-opacity="1"/></g><g><path d="M2.5,14.250000238418579C2.9142099999999997,14.250000238418579,3.25,14.58578623841858,3.25,15.000000238418579C3.25,15.000000238418579,3.25,19.25000023841858,3.25,19.25000023841858C3.25,19.25000023841858,20.75,19.25000023841858,20.75,19.25000023841858C20.75,19.25000023841858,20.75,15.500000238418579,20.75,15.500000238418579C20.75,15.08578623841858,21.0858,14.750000238418579,21.5,14.750000238418579C21.9142,14.750000238418579,22.25,15.08578623841858,22.25,15.500000238418579C22.25,15.500000238418579,22.25,19.900000238418578,22.25,19.900000238418578C22.25,20.36944023841858,21.8694,20.75000023841858,21.4,20.75000023841858C21.4,20.75000023841858,2.6,20.75000023841858,2.6,20.75000023841858C2.130559,20.75000023841858,1.75,20.36944023841858,1.75,19.900000238418578C1.75,19.900000238418578,1.75,15.000000238418579,1.75,15.000000238418579C1.75,14.58578623841858,2.085786,14.250000238418579,2.5,14.250000238418579Z" fill-rule="evenodd" fill="#0000FF" fill-opacity="1"/></g></g></g></svg>