<svg xmlns="http://www.w3.org/2000/svg" xmlns:xlink="http://www.w3.org/1999/xlink" fill="none" version="1.1" width="24.00009536743164" height="23.82895851135254" viewBox="0 0 24.00009536743164 23.82895851135254"><g><path d="M21.8295,0.264L1.0575,12.438C0.384,12.834,0.0375,13.362,0,13.8735L0,14.064C0.048,14.676,0.54,15.2355,1.4445,15.48L5.475,16.572C5.90748,16.6742,6.34082,16.4061,6.4425,15.9735C6.55761,15.5414,6.31146,15.0954,5.8845,14.9625L1.8675,13.875L22.338,1.878L20.106,18.366C20.073,18.6105,19.8915,18.7335,19.6665,18.6705L11.097,16.32L18.042,9.1515C18.3561,8.82184,18.3561,8.30366,18.042,7.974C17.7308,7.64924,17.2117,7.64924,16.9005,7.974L9.288,15.834C9.22268,15.9016,9.16109,15.9727,9.1035,16.047C8.86041,16.2052,8.71721,16.4786,8.7255,16.7685C8.64402,17.015,8.6025,17.2733,8.6025,17.5335L8.6025,22.371C8.6025,23.535,9.858,24.2265,10.7955,23.583L14.6925,20.9025C14.9325,20.739,15.0675,20.454,15.0495,20.1555C15.0314,19.8619,14.8606,19.5994,14.5995,19.464C14.3426,19.3321,14.0339,19.3528,13.797,19.518L10.215,21.981L10.215,17.799L19.2495,20.274C20.412,20.5935,21.534,19.827,21.7005,18.591L23.9775,1.773C24.1755,0.355503,23.04,-0.446997,21.8295,0.264Z" fill="#FFFFFF" fill-opacity="1"/></g></svg>