<svg width="18" height="18" viewBox="0 0 18 18" fill="none" xmlns="http://www.w3.org/2000/svg">
<path d="M1.61539 13.9231C1.24274 13.7678 1 13.4037 1 13V4.33333L8.23077 1.32051C8.72308 1.11538 9.27692 1.11538 9.76923 1.32051L13 2.66667L17 4.33333V13C17 13.4037 16.7573 13.7678 16.3846 13.9231L9 17L1.61539 13.9231Z" fill="#9E9B9B"/>
<path d="M1 4.33333V13C1 13.4037 1.24274 13.7678 1.61539 13.9231L9 17M1 4.33333L8.23077 1.32051C8.72308 1.11538 9.27692 1.11538 9.76923 1.32051L13 2.66667M1 4.33333L5 6M9 7.66667V17M9 7.66667L17 4.33333M9 7.66667L5 6M9 17L16.3846 13.9231C16.7573 13.7678 17 13.4037 17 13V4.33333M17 4.33333L13 2.66667M5 6L13 2.66667" stroke="white" stroke-width="1.5" stroke-linejoin="round"/>
</svg>
