<svg xmlns="http://www.w3.org/2000/svg" xmlns:xlink="http://www.w3.org/1999/xlink" fill="none" version="1.1" width="56" height="56" viewBox="0 0 56 56"><defs><clipPath id="master_svg0_219_657438"><rect x="0" y="0" width="56" height="56" rx="0"/></clipPath></defs><g clip-path="url(#master_svg0_219_657438)"><g><path d="M26.34856375,41.98906L24.18294175,41.98906C23.77278575,41.98906,23.46653595,41.622659999999996,23.53762965,41.21797L24.53841375,35.541406C24.59309375,35.229687,24.86653375,35,25.18372375,35L27.34934375,35C27.75950375,35,28.06575375,35.366406,27.99466375,35.771094L26.993883750000002,41.44766C26.93919375,41.75938,26.66575375,41.98906,26.34856375,41.98906ZM33.35403375,41.98906L31.18841375,41.98906C30.77825375,41.98906,30.47200375,41.622659999999996,30.54309375,41.21797L31.54388375,35.541406C31.59856375,35.229687,31.872003749999998,35,32.18919375,35L34.35484375,35C34.76494375,35,35.07124375,35.366406,35.00014375,35.771094L33.99934375,41.44766C33.94464375,41.75938,33.67124375,41.98906,33.35403375,41.98906ZM43.848543750000005,41.98906L38.19384375,41.98906C37.78374375,41.98906,37.47744375,41.622659999999996,37.54854375,41.21797L38.54934375,35.541406C38.60404375,35.229687,38.87744375,35,39.19464375,35L44.85484375,35C45.26494375,35,45.57124375,35.366406,45.50014375,35.771094L44.49934375,41.44766C44.44464375,41.75938,44.17124375,41.98906,43.848543750000005,41.98906Z" fill="#F98434" fill-opacity="1"/></g><g><path d="M48.80465,13.29443359375C49.04535,13.29443359375,49.24215,13.49131359375,49.24215,13.73193359375L49.24215,44.05618359375C49.24215,44.29678359375,49.04535,44.49368359375,48.80465,44.49368359375L7.1875,44.49368359375C6.94688,44.49368359375,6.75,44.29678359375,6.75,44.05618359375L6.75,13.73193359375C6.75,13.49131359375,6.94688,13.29443359375,7.1875,13.29443359375L48.80465,13.29443359375ZM48.80465,10.01318359375L7.1875,10.01318359375C5.13125,10.01318359375,3.46875,11.67568359375,3.46875,13.73193359375L3.46875,44.05618359375C3.46875,46.11238359375,5.13125,47.77488359375,7.1875,47.77488359375L48.80465,47.77488359375C50.86095,47.77488359375,52.52345,46.11238359375,52.52345,44.05618359375L52.52345,13.73193359375C52.52345,11.67568359375,50.85545,10.01318359375,48.80465,10.01318359375Z" fill="#F98434" fill-opacity="1"/></g><g><path d="M52.21641875,18.5771484375L3.51171875,18.5771484375L3.51171875,22.0990184375L52.21641875,22.0990184375L52.21641875,18.5771484375Z" fill="#F98434" fill-opacity="1"/></g></g></svg>