<svg xmlns="http://www.w3.org/2000/svg" xmlns:xlink="http://www.w3.org/1999/xlink"  version="1.1" width="24" height="24" viewBox="0 0 24 24"><defs><clipPath id="master_svg0_194_53733"><rect x="0" y="0" width="24" height="24" rx="0"/></clipPath></defs><g clip-path="url(#master_svg0_194_53733)"><g><path d="M20.3571,9.06021C20.0021,9.06021,19.7143,9.34803,19.7143,9.70307L19.7143,19.0714C19.7143,19.4265,19.4265,19.7143,19.0714,19.7143L4.92857,19.7143C4.57353,19.7143,4.28571,19.4265,4.28571,19.0714L4.28571,4.92857C4.28571,4.57353,4.57353,4.28571,4.92857,4.28571L13.5589,4.28571C13.914,4.28571,14.2018,3.997897,14.2018,3.6428570000000002C14.2018,3.287817,13.914,3,13.5589,3L4.92857,3C3.863451,2.9999999019078,3.0000000980922,3.863451,3,4.92857L3,19.0714C3.0000000980922,20.1365,3.863451,21,4.92857,21L19.0714,21C20.1365,21,21,20.1365,21,19.0714L21,9.70307C21,9.34803,20.7122,9.06021,20.3571,9.06021Z"  /><path d="M21.15,19.0714L21.15,9.70307Q21.15,9.37466,20.9178,9.142430000000001Q20.6856,8.91021,20.3571,8.91021Q20.0287,8.91021,19.7965,9.14244Q19.5643,9.37466,19.5643,9.70307L19.5643,19.0714Q19.5643,19.2756,19.4199,19.4199Q19.2756,19.5643,19.0714,19.5643L4.92857,19.5643Q4.72442,19.5643,4.58007,19.4199Q4.43571,19.2756,4.43571,19.0714L4.43571,4.92857Q4.43571,4.72442,4.58007,4.58007Q4.72442,4.43571,4.92857,4.43571L13.5589,4.43571Q13.8873,4.43571,14.1196,4.20349Q14.3518,3.9712680000000002,14.3518,3.6428570000000002Q14.3518,3.3144460000000002,14.1196,3.0822224Q13.8873,2.85,13.5589,2.85L4.92857,2.85Q4.0676000000000005,2.85,3.458799,3.458799Q2.85,4.0676000000000005,2.85,4.92857L2.85,19.0714Q2.85,19.9324,3.458799,20.5412Q4.0676000000000005,21.15,4.92857,21.15L19.0714,21.15Q19.9324,21.15,20.5412,20.5412Q21.15,19.9324,21.15,19.0714ZM20.7056,9.354569999999999Q20.85,9.49892,20.85,9.70307L20.85,19.0714Q20.85,19.8081,20.3291,20.3291Q19.8081,20.85,19.0714,20.85L4.92857,20.85Q4.19187,20.85,3.670932,20.3291Q3.15,19.8081,3.15,19.0714L3.15,4.92857Q3.15,4.19186,3.670931,3.670931Q4.19186,3.15,4.92857,3.15L13.5589,3.15Q13.7631,3.15,13.9074,3.2943540000000002Q14.0518,3.43871,14.0518,3.6428570000000002Q14.0518,3.847004,13.9074,3.991359Q13.7631,4.1357099999999996,13.5589,4.1357099999999996L4.92857,4.1357099999999996Q4.60016,4.1357099999999996,4.36794,4.36794Q4.1357099999999996,4.60016,4.1357099999999996,4.92857L4.1357099999999996,19.0714Q4.1357099999999996,19.3998,4.36794,19.6321Q4.60016,19.8643,4.92857,19.8643L19.0714,19.8643Q19.3998,19.8643,19.6321,19.6321Q19.8643,19.3998,19.8643,19.0714L19.8643,9.70307Q19.8643,9.49892,20.0086,9.354569999999999Q20.153,9.21021,20.3571,9.21021Q20.5613,9.21021,20.7056,9.354569999999999Z"   /></g><g><path d="M9.0642272,13.0773C8.9539899,13.3033,8.9874929,13.5709,9.150611,13.7643C9.30764,13.9505,9.557338,14.0355,9.797559,13.9863C9.818195,13.982,9.837808,13.9761,9.857861,13.9697L12.25291,13.2C12.39221,13.1553,12.51999,13.0805,12.62723,12.9809L21.2297,4.996980000000001C21.6488,4.60801,21.657,3.9474299999999998,21.2476,3.54817L20.3415,2.664321C19.96,2.292197,19.3537,2.284649,18.963050000000003,2.647162L10.30243,10.68396C10.21164,10.7682,10.1373,10.86858,10.08318,10.97998L9.0664057,13.0728C9.065643,13.0744,9.0649925,13.0757,9.0642272,13.0773"  /></g></g></svg>