<svg xmlns="http://www.w3.org/2000/svg" xmlns:xlink="http://www.w3.org/1999/xlink"  version="1.1" width="22" height="22" viewBox="0 0 22 22"><defs><clipPath id="master_svg0_219_654931"><rect x="0" y="0" width="22" height="22" rx="0"/></clipPath></defs><g clip-path="url(#master_svg0_219_654931)"><g><path d="M17.2885,18.538884375000002L4.71152,18.538884375000002C2.8724600000000002,18.538884375000002,1.375,17.041384375,1.375,15.202384375L1.375,6.7976543750000005C1.375,4.956444375,2.8724600000000002,3.458984375,4.71152,3.458984375L17.2885,3.458984375C19.1297,3.458984375,20.625,4.956444375,20.625,6.7976543750000005L20.625,15.200184375C20.625,17.041384375,19.1275,18.538884375000002,17.2885,18.538884375000002ZM4.71152,4.767384375C3.59219,4.767384375,2.68125,5.678324375,2.68125,6.7976543750000005L2.68125,15.200184375C2.68125,16.319484375000002,3.59219,17.230484375,4.71152,17.230484375L17.2885,17.230484375C18.4078,17.230484375,19.3188,16.319484375000002,19.3188,15.200184375L19.3188,6.7976543750000005C19.3188,5.678324375,18.4078,4.767384375,17.2885,4.767384375L4.71152,4.767384375ZM13.7414,8.123244374999999L4.70293,8.123244374999999C4.34199,8.123244374999999,4.049799999999999,7.831054375,4.049799999999999,7.470114375C4.049799999999999,7.109184375,4.34199,6.816994375,4.70293,6.816994375L13.7414,6.816994375C14.1023,6.816994375,14.3945,7.109184375,14.3945,7.470114375C14.3945,7.831054375,14.1023,8.123244374999999,13.7414,8.123244374999999ZM10.51875,11.107424375L4.70293,11.107424375C4.34199,11.107424375,4.049799999999999,10.815234375,4.049799999999999,10.454294375C4.049799999999999,10.093364375,4.34199,9.801174375,4.70293,9.801174375L10.51875,9.801174375C10.87969,9.801174375,11.17188,10.093364375,11.17188,10.454294375C11.17402,10.815234375,10.87969,11.107424375,10.51875,11.107424375ZM15.3527,14.551384375C15.3527,14.987484375,15.5848,15.391384375,15.9629,15.608384375C16.341,15.827584375,16.8051,15.827584375,17.1832,15.608384375C17.5613,15.389284375,17.7934,14.987484375,17.7934,14.551384375C17.7934,14.115184375,17.5613,13.711284375,17.1832,13.494384375C16.8059,13.275194375,16.3401,13.275194375,15.9629,13.494384375C15.5848,13.711284375,15.3527,14.115184375,15.3527,14.551384375Z"  /></g></g></svg>