<svg xmlns="http://www.w3.org/2000/svg" xmlns:xlink="http://www.w3.org/1999/xlink" fill="none" version="1.1" width="16.293859481811523" height="15" viewBox="0 0 16.293859481811523 15"><g transform="matrix(1,0,0,-1,0,30)"><path d="M13.3536,15.353553C13.1583,15.158291,12.8417,15.158291,12.6464,15.353553C12.6464,15.353553,9.85355,18.14645,9.85355,18.14645C9.53857,18.46143,9.76165,19,10.2071,19C10.2071,19,11.8,19,11.8,19C11.9105,19,12,19.08954,12,19.2C12,19.2,12,26,12,26C12,27.1,11.1,28,10,28C8.9,28,8,27.1,8,26C8,26,8,19,8,19C8,16.79,6.21,15,4,15C1.79,15,0,16.79,0,19C0,19,0,26,0,26C0,26,0,28.5,0,28.5C0,29.052300000000002,0.447715,29.5,1,29.5C1,29.5,1,29.5,1,29.5C1.55228,29.5,2,29.052300000000002,2,28.5C2,28.5,2,26,2,26C2,26,2,19,2,19C2,17.9,2.9,17,4,17C5.1,17,6,17.9,6,19C6,19,6,26,6,26C6,28.21,7.79,30,10,30C12.21,30,14,28.21,14,26C14,26,14,19.2,14,19.2C14,19.08954,14.0895,19,14.2,19C14.2,19,15.7929,19,15.7929,19C16.2383,19,16.4614,18.46143,16.1464,18.14645C16.1464,18.14645,13.3536,15.353553,13.3536,15.353553C13.3536,15.353553,13.3536,15.353553,13.3536,15.353553Z" fill="#333333" fill-opacity="1"/></g></svg>