<svg width="41" height="32" viewBox="0 0 41 32" fill="none" xmlns="http://www.w3.org/2000/svg">
<rect x="0.5" y="0.5" width="40" height="31" rx="5.5" fill="white" stroke="#E4E3E6"/>
<path fill-rule="evenodd" clip-rule="evenodd" d="M19.7673 10.2229H25.1643C28.062 10.2229 29.1528 11.7046 28.9843 13.8815C28.7057 17.4753 26.5547 19.4636 23.7015 19.4636H22.261C21.8696 19.4636 21.6063 19.7253 21.5004 20.4345L20.8888 24.5574C20.8484 24.8247 20.7091 24.9795 20.5001 25.0006H17.1092C16.7902 25.0006 16.6774 24.7544 16.761 24.2211L18.8284 11.0039C18.9092 10.4748 19.1962 10.2229 19.7673 10.2229Z" fill="#009EE3"/>
<path fill-rule="evenodd" clip-rule="evenodd" d="M16.4683 6H21.7975C23.2981 6 25.0791 6.04851 26.2691 7.10874C27.0648 7.81694 27.4826 8.9437 27.3864 10.1578C27.0593 14.2615 24.6256 16.5607 21.3605 16.5607H18.733C18.285 16.5607 17.9895 16.8601 17.8631 17.6695L17.1293 22.3816C17.0812 22.6865 16.9506 22.8667 16.717 22.8889H13.4285C13.0644 22.8889 12.9352 22.6117 13.03 21.9991L15.3936 6.8953C15.4885 6.28827 15.8196 6 16.4683 6Z" fill="#113984"/>
<path fill-rule="evenodd" clip-rule="evenodd" d="M18.332 17.084L19.2358 11.0106C19.3145 10.4779 19.5895 10.2229 20.1368 10.2229H25.3082C26.1639 10.2229 26.8567 10.3646 27.3987 10.6267C26.8794 14.3611 24.6034 16.4351 21.6239 16.4351H19.0756C18.7338 16.4366 18.4829 16.6179 18.332 17.084Z" fill="#172C70"/>
</svg>
