<svg xmlns="http://www.w3.org/2000/svg" xmlns:xlink="http://www.w3.org/1999/xlink" fill="none" version="1.1" width="22" height="22" viewBox="0 0 22 22"><defs><clipPath id="master_svg0_183_06663"><rect x="0" y="0" width="22" height="22" rx="0"/></clipPath></defs><g clip-path="url(#master_svg0_183_06663)"><g><path d="M13.504305546875,3.23724365234375L13.544475546875,3.23724365234375L20.403785546875,3.26775365234375L20.433885546875,10.12771365234375L20.433885546875,10.15822365234375C20.433285546875,10.25824365234375,20.391985546875,10.35371365234375,20.319585546875,10.42269365234375L12.236945546875,18.50599365234375C12.073665546875,18.66929365234375,11.857745546875,18.76379365234375,11.644405546875,18.76379365234375C11.482615546875,18.76769365234375,11.326095546874999,18.70619365234375,11.210205546874999,18.59319365234375L5.079425546875,12.46089365234375C4.923015546875,12.30449365234375,4.905615546875,12.10578365234375,4.909265546875,12.00115365234375C4.919765546875,11.78646365234375,5.011465546875,11.58379365234375,5.165785546875,11.43417365234375L13.248855546875,3.35154365234375C13.316085546875,3.28193365234375,13.407605546875,3.24098365234375,13.504305546875,3.23724365234375ZM13.504305546875,2.20599365234375C13.134005546875,2.20937031234375,12.780055546875,2.35904165234375,12.519675546875,2.62236065234375L4.436610546875,10.70542365234375C3.726336546875,11.41570365234375,3.687879546875,12.52839365234375,4.350672546875,13.19069365234375L10.480805546875,19.32149365234375C10.797055546875,19.63759365234375,11.215785546875,19.79419365234375,11.644405546875,19.79419365234375C12.141595546875,19.79049365234375,12.616995546875,19.58959365234375,12.966125546875,19.23559365234375L21.049385546875,11.15187365234375C21.323885546875,10.88098365234375,21.474285546875,10.50872365234375,21.464885546875,10.12320365234375L21.430785546875,2.24101315234375L13.548565546875,2.20663818334375L13.504305546875,2.20663818334375L13.504305546875,2.20599365234375Z" fill="#0000FF" fill-opacity="1"/></g><g><path d="M7.1182417578125,19.75126279296875L1.3636527578125,13.99666279296875C0.2578517578125,12.89056279296875,0.2578517578125,11.09172279296875,1.3636527578125,9.98592279296875L8.5654317578125,2.78436279296875L9.2946117578125,3.51354279296875L2.0928317578125,10.71510279296875C1.3892737578125,11.42043279296875,1.3892737578125,12.56212279296875,2.0928317578125,13.26746279296875L7.8474217578125,19.02206279296875L7.1182417578125,19.75126279296875Z" fill="#0000FF" fill-opacity="1"/></g><g><path d="M16.752796718749998,7.959553759765625Q16.752796718749998,8.010683759765625,16.74778671875,8.061563759765624Q16.74276671875,8.112443759765625,16.73279671875,8.162583759765624Q16.72281671875,8.212733759765625,16.70797671875,8.261653759765625Q16.69313671875,8.310583759765624,16.67357671875,8.357813759765625Q16.65400671875,8.405053759765625,16.62990671875,8.450143759765625Q16.60580671875,8.495233759765625,16.57740671875,8.537743759765625Q16.54899671875,8.580253759765625,16.51656671875,8.619773759765625Q16.48412671875,8.659293759765625,16.44797671875,8.695443759765626Q16.41182671875,8.731593759765625,16.37230671875,8.764033759765624Q16.33278671875,8.796463759765626,16.29027671875,8.824873759765625Q16.24776671875,8.853273759765624,16.20267671875,8.877373759765625Q16.15758671875,8.901473759765626,16.11034671875,8.921043759765626Q16.06311671875,8.940603759765626,16.01418671875,8.955443759765625Q15.96526671875,8.970283759765625,15.91511671875,8.980263759765625Q15.86497671875,8.990233759765625,15.81409671875,8.995243759765625Q15.76321671875,9.000263759765625,15.71208671875,9.000263759765625Q15.66096371875,9.000263759765625,15.61008271875,8.995243759765625Q15.55920271875,8.990233759765625,15.50905871875,8.980263759765625Q15.45891471875,8.970283759765625,15.40998971875,8.955443759765625Q15.36106471875,8.940603759765626,15.31382971875,8.921043759765626Q15.26659471875,8.901473759765626,15.22150571875,8.877373759765625Q15.17641571875,8.853273759765624,15.13390571875,8.824873759765625Q15.09139571875,8.796463759765626,15.05187471875,8.764033759765624Q15.01235371875,8.731593759765625,14.97620171875,8.695443759765626Q14.94004971875,8.659293759765625,14.90761571875,8.619773759765625Q14.87518071875,8.580253759765625,14.84677671875,8.537743759765625Q14.81837271875,8.495233759765625,14.79427171875,8.450143759765625Q14.77017081875,8.405053759765625,14.75060551875,8.357813759765625Q14.73104021875,8.310583759765624,14.71619901875,8.261653759765625Q14.70135781875,8.212733759765625,14.69138351875,8.162583759765624Q14.68140921875,8.112443759765625,14.67639798875,8.061563759765624Q14.67138671875,8.010683759765625,14.67138671875,7.959553759765625Q14.67138671875,7.908429759765625,14.67639798875,7.857549759765625Q14.68140921875,7.806669759765625,14.69138351875,7.7565257597656245Q14.70135781875,7.706381759765625,14.71619901875,7.657456759765625Q14.73104021875,7.608531759765625,14.75060551875,7.561296759765625Q14.77017081875,7.5140617597656245,14.79427171875,7.4689727597656255Q14.81837271875,7.423882759765625,14.84677671875,7.381372759765625Q14.87518071875,7.338862759765625,14.90761571875,7.299341759765625Q14.94004971875,7.259820759765625,14.97620171875,7.223668759765625Q15.01235371875,7.187516759765625,15.05187471875,7.155082759765625Q15.09139571875,7.122647759765625,15.13390571875,7.094243759765625Q15.17641571875,7.065839759765625,15.22150571875,7.041738759765625Q15.26659471875,7.017637759765625,15.31382971875,6.998072559765625Q15.36106471875,6.978507259765625,15.40998971875,6.963666059765625Q15.45891471875,6.948824859765625,15.50905871875,6.938850559765625Q15.55920271875,6.928876259765625,15.61008271875,6.923865029765625Q15.66096371875,6.918853759765625,15.71208671875,6.918853759765625Q15.76321671875,6.918853759765625,15.81409671875,6.923865029765625Q15.86497671875,6.928876259765625,15.91511671875,6.938850559765625Q15.96526671875,6.948824859765625,16.01418671875,6.963666059765625Q16.06311671875,6.978507259765625,16.11034671875,6.998072559765625Q16.15758671875,7.017637759765625,16.20267671875,7.041738759765625Q16.24776671875,7.065839759765625,16.29027671875,7.094243759765625Q16.33278671875,7.122647759765625,16.37230671875,7.155082759765625Q16.41182671875,7.187516759765625,16.44797671875,7.223668759765625Q16.48412671875,7.259820759765625,16.51656671875,7.299341759765625Q16.54899671875,7.338862759765625,16.57740671875,7.381372759765625Q16.60580671875,7.423882759765625,16.62990671875,7.4689727597656255Q16.65400671875,7.5140617597656245,16.67357671875,7.561296759765625Q16.69313671875,7.608531759765625,16.70797671875,7.657456759765625Q16.72282671875,7.706381759765625,16.73279671875,7.7565257597656245Q16.74276671875,7.806669759765625,16.74777671875,7.857549759765625Q16.752796718749998,7.908429759765625,16.752796718749998,7.959553759765625Z" fill="#0000FF" fill-opacity="1"/></g></g></svg>