<svg xmlns="http://www.w3.org/2000/svg" xmlns:xlink="http://www.w3.org/1999/xlink"  version="1.1" width="24" height="24" viewBox="0 0 24 24"><defs><clipPath id="master_svg0_194_53676"><rect x="0" y="0" width="24" height="24" rx="0"/></clipPath></defs><g clip-path="url(#master_svg0_194_53676)"><g><path d="M4.75,6L3.75,6C3.335786,6,3,5.664210000000001,3,5.25C3,4.835789999999999,3.335786,4.5,3.75,4.5L20.25,4.5C20.6642,4.5,21,4.835789999999999,21,5.25C21,5.664210000000001,20.6642,6,20.25,6L6.25,6L6.25,19.25C6.25,19.9404,6.80964,20.5,7.5,20.5L16.5,20.5C17.1904,20.5,17.75,19.9404,17.75,19.25L17.75,8.25C17.75,7.83579,18.0858,7.5,18.5,7.5C18.9142,7.5,19.25,7.83579,19.25,8.25L19.25,19.25C19.25,20.7687,18.018700000000003,22,16.5,22L7.5,22C5.98125,22,4.75,20.7687,4.75,19.25L4.75,6ZM10,3.5C9.58579,3.5,9.25,3.1642099999999997,9.25,2.75C9.25,2.335786,9.58579,2,10,2L14,2C14.4142,2,14.75,2.335786,14.75,2.75C14.75,3.1642099999999997,14.4142,3.5,14,3.5L10,3.5ZM9.25,10.25C9.25,9.83579,9.58579,9.5,10,9.5C10.41421,9.5,10.75,9.83579,10.75,10.25L10.75,16.25C10.75,16.6642,10.41421,17,10,17C9.58579,17,9.25,16.6642,9.25,16.25L9.25,10.25ZM13.25,10.25C13.25,9.83579,13.5858,9.5,14,9.5C14.4142,9.5,14.75,9.83579,14.75,10.25L14.75,16.25C14.75,16.6642,14.4142,17,14,17C13.5858,17,13.25,16.6642,13.25,16.25L13.25,10.25Z"  /></g></g></svg>