<svg width="18" height="14" viewBox="0 0 18 14" fill="none" xmlns="http://www.w3.org/2000/svg">
<path d="M16.3053 9.21045V12.3683C16.3053 12.7157 15.9922 12.9999 15.6096 12.9999H2.3916" fill="#F86C00" fill-opacity="0.08"/>
<path d="M16.3052 9.21045V12.3683C16.3052 12.7157 15.9922 12.9999 15.6096 12.9999H2.3916" stroke="#F86C00" stroke-miterlimit="10" stroke-linecap="round" stroke-linejoin="round"/>
<path d="M2.3916 3.52637H15.6096C15.9922 3.52637 16.3053 3.81058 16.3053 4.15794V6.68426" fill="#F86C00" fill-opacity="0.08"/>
<path d="M2.3916 3.52637H15.6096C15.9922 3.52637 16.3052 3.81058 16.3052 4.15794V6.68426" stroke="#F86C00" stroke-miterlimit="10" stroke-linecap="round" stroke-linejoin="round"/>
<path d="M1 3.52637V4.15795V11.7369" fill="#F86C00" fill-opacity="0.08"/>
<path d="M1 3.52637V4.15795V11.7369" stroke="#F86C00" stroke-miterlimit="10" stroke-linecap="round" stroke-linejoin="round"/>
<path d="M2.39136 1C1.62611 1 1 1.56842 1 2.26316C1 2.95789 1.62611 3.52631 2.39136 3.52631" fill="#F86C00" fill-opacity="0.08"/>
<path d="M2.39136 1C1.62611 1 1 1.56842 1 2.26316C1 2.95789 1.62611 3.52631 2.39136 3.52631" stroke="#F86C00" stroke-miterlimit="10" stroke-linecap="round" stroke-linejoin="round"/>
<path d="M1 4.15792V2.26318" stroke="#F86C00" stroke-miterlimit="10" stroke-linecap="round" stroke-linejoin="round"/>
<path d="M14.2182 3.52631V1.63158C14.2182 1.28421 13.9051 1 13.5225 1H2.3916" fill="#F86C00" fill-opacity="0.08"/>
<path d="M14.2182 3.52631V1.63158C14.2182 1.28421 13.9051 1 13.5225 1H2.3916" stroke="#F86C00" stroke-miterlimit="10" stroke-linecap="round" stroke-linejoin="round"/>
<path d="M1 11.7368C1 12.4316 1.62611 13 2.39136 13L1 11.7368Z" fill="#F86C00" fill-opacity="0.08"/>
<path d="M1 11.7368C1 12.4316 1.62611 13 2.39136 13" stroke="#F86C00" stroke-miterlimit="10" stroke-linecap="round" stroke-linejoin="round"/>
<path d="M12.1306 9.21088C11.3654 9.21088 10.7393 8.64246 10.7393 7.94773C10.7393 7.25299 11.3654 6.68457 12.1306 6.68457" fill="#F86C00" fill-opacity="0.08"/>
<path d="M12.1306 9.21088C11.3654 9.21088 10.7393 8.64246 10.7393 7.94773C10.7393 7.25299 11.3654 6.68457 12.1306 6.68457" stroke="#F86C00" stroke-miterlimit="10" stroke-linecap="round" stroke-linejoin="round"/>
<path d="M12.1301 9.21088H16.3042C16.6868 9.21088 16.9999 8.92667 16.9999 8.5793V7.31615C16.9999 6.96878 16.6868 6.68457 16.3042 6.68457H12.1301" fill="#F86C00" fill-opacity="0.08"/>
<path d="M12.1301 9.21088H16.3042C16.6868 9.21088 16.9999 8.92667 16.9999 8.5793V7.31615C16.9999 6.96878 16.6868 6.68457 16.3042 6.68457H12.1301" stroke="#F86C00" stroke-miterlimit="10" stroke-linecap="round" stroke-linejoin="round"/>
</svg>
