<svg width="20" height="20" viewBox="0 0 20 20" fill="none" xmlns="http://www.w3.org/2000/svg">
<path fill-rule="evenodd" clip-rule="evenodd" d="M13.1666 6.66667C13.1666 8.41557 11.7488 9.83333 9.9999 9.83333C8.251 9.83333 6.83323 8.41557 6.83323 6.66667C6.83323 4.91776 8.251 3.5 9.9999 3.5C11.7488 3.5 13.1666 4.91776 13.1666 6.66667ZM12.0181 10.3128C13.2993 9.6021 14.1666 8.23566 14.1666 6.66667C14.1666 4.36548 12.3011 2.5 9.9999 2.5C7.69871 2.5 5.83323 4.36548 5.83323 6.66667C5.83323 8.23566 6.70046 9.60211 7.98172 10.3128C6.97405 10.6329 6.04734 11.1912 5.28587 11.9526C4.2738 12.9647 3.62074 14.2687 3.40865 15.6667C3.35874 15.9957 3.33325 16.3298 3.33325 16.6667H4.33325L9.99992 16.6667H15.6666H16.6666C16.6666 16.3298 16.6411 15.9957 16.5912 15.6667C16.3791 14.2687 15.726 12.9647 14.714 11.9526C13.9525 11.1911 13.0258 10.6329 12.0181 10.3128ZM14.0069 12.6597C14.8308 13.4837 15.3748 14.5353 15.5777 15.6667H9.99992L4.42216 15.6667C4.62501 14.5353 5.16902 13.4837 5.99298 12.6597C7.05569 11.597 8.49703 11 9.99992 11C11.5028 11 12.9441 11.597 14.0069 12.6597Z" fill="#F86C00"/>
</svg>
