<svg xmlns="http://www.w3.org/2000/svg" xmlns:xlink="http://www.w3.org/1999/xlink"  version="1.1" width="24" height="24" viewBox="0 0 24 24"><defs><clipPath id="master_svg0_369_35925"><rect x="0" y="0" width="24" height="24" rx="0"/></clipPath></defs><g clip-path="url(#master_svg0_369_35925)"><g><g><path d="M4.71429,10.53564453125C3.62944,10.53564453125,2.75,11.41508453125,2.75,12.49993453125C2.75,13.58477453125,3.62944,14.46421453125,4.71429,14.46421453125C5.79913,14.46421453125,6.67857,13.58477453125,6.67857,12.49993453125C6.67857,11.41508453125,5.79913,10.53564453125,4.71429,10.53564453125ZM1.25,12.49993453125C1.25,10.58665453125,2.8010099999999998,9.03564453125,4.71429,9.03564453125C6.62756,9.03564453125,8.17857,10.58665453125,8.17857,12.49993453125C8.17857,14.413204531249999,6.62756,15.96421453125,4.71429,15.96421453125C2.8010099999999998,15.96421453125,1.25,14.413204531249999,1.25,12.49993453125Z" /></g><g><path d="M18.286555625,3.75C17.201705625,3.75,16.322265625,4.629440000000001,16.322265625,5.71429C16.322265625,6.79913,17.201705625,7.67857,18.286555625,7.67857C19.371395624999998,7.67857,20.250835625,6.79913,20.250835625,5.71429C20.250835625,4.629440000000001,19.371395624999998,3.75,18.286555625,3.75ZM14.822265625,5.71429C14.822265625,3.8010099999999998,16.373275625,2.25,18.286555625,2.25C20.199825625,2.25,21.750835625,3.8010099999999998,21.750835625,5.71429C21.750835625,7.62756,20.199825625,9.17857,18.286555625,9.17857C16.373275625,9.17857,14.822265625,7.62756,14.822265625,5.71429Z"  /></g><g><path d="M18.286555625,17.321208000183105C17.201705625,17.321208000183105,16.322265625,18.200648000183104,16.322265625,19.285498000183104C16.322265625,20.370338000183104,17.201705625,21.249778000183106,18.286555625,21.249778000183106C19.371395624999998,21.249778000183106,20.250835625,20.370338000183104,20.250835625,19.285498000183104C20.250835625,18.200648000183104,19.371395624999998,17.321208000183105,18.286555625,17.321208000183105ZM14.822265625,19.285498000183104C14.822265625,17.372218000183107,16.373275625,15.821208000183105,18.286555625,15.821208000183105C20.199825625,15.821208000183105,21.750835625,17.372218000183107,21.750835625,19.285498000183104C21.750835625,21.198768000183104,20.199825625,22.749778000183106,18.286555625,22.749778000183106C16.373275625,22.749778000183106,14.822265625,21.198768000183104,14.822265625,19.285498000183104Z"  /></g><g><path d="M16.218424374999998,6.6935080625C16.427134375,7.0512970625,16.306284375,7.5105390624999995,15.948494375,7.7192490625C15.948494375,7.7192490625,8.177734375,12.252189062500001,8.177734375,12.252189062500001C8.177734375,12.252189062500001,8.177734375,12.747779062500001,8.177734375,12.747779062500001C8.177734375,12.747779062500001,15.948494375,17.280689062500002,15.948494375,17.280689062500002C16.306284375,17.489389062500003,16.427134375,17.9486890625,16.218424374999998,18.3064890625C16.009714375,18.6642890625,15.550474375,18.7850890625,15.192684375,18.5763890625C15.192684375,18.5763890625,7.099443375,13.855329062500001,7.099443375,13.855329062500001C6.838307375,13.7029990625,6.677734375,13.4234290625,6.677734375,13.1211190625C6.677734375,13.1211190625,6.677734375,11.878849062499999,6.677734375,11.878849062499999C6.677734375,11.5765290625,6.838308375,11.2969690625,7.099444375,11.1446390625C7.099444375,11.1446390625,15.192684375,6.4235770625,15.192684375,6.4235770625C15.550474375,6.2148670625,16.009714375,6.3357189625,16.218424374999998,6.6935080625Z" /></g></g></g></svg>