<svg xmlns="http://www.w3.org/2000/svg" xmlns:xlink="http://www.w3.org/1999/xlink" fill="none" version="1.1" width="24" height="24" viewBox="0 0 24 24"><defs><clipPath id="master_svg0_219_838971"><rect x="0" y="0" width="24" height="24" rx="0"/></clipPath></defs><g clip-path="url(#master_svg0_219_838971)"><g><path d="M12.80675,16.50165625C12.80675,16.50165625,11.48825,13.40415625,11.48825,13.40415625C11.48825,13.40415625,9.983,16.968956249999998,9.983,16.968956249999998C9.983,16.968956249999998,4.343,14.50145625,4.343,14.50145625C4.343,14.50145625,4.47425,17.43095625,4.47425,17.43095625C4.47425,17.43095625,11.55205,20.71145625,11.55205,20.71145625C11.55205,20.71145625,19.73455,16.68765625,19.73455,16.68765625C19.73455,16.68765625,19.62205,12.94515625,19.62205,12.94515625C19.62205,12.94515625,12.80675,16.50165625,12.80675,16.50165625C12.80675,16.50165625,12.80675,16.50165625,12.80675,16.50165625ZM22.08875,4.96365625C22.08875,4.96365625,13.88825,2.53515625,13.88825,2.53515625C13.88825,2.53515625,11.63455,4.5376562499999995,11.63455,4.5376562499999995C11.63455,4.5376562499999995,9.317,2.76915625,9.317,2.76915625C9.317,2.76915625,1.15625,6.14865625,1.15625,6.14865625C1.15625,6.14865625,4.0032499999999995,8.43390625,4.0032499999999995,8.43390625C4.0032499999999995,8.43390625,1.43075,12.41115625,1.43075,12.41115625C1.43075,12.41115625,9.59075,15.97815625,9.59075,15.97815625C9.59075,15.97815625,11.48825,11.47965625,11.48825,11.47965625C11.48825,11.47965625,13.18025,15.46065625,13.18025,15.46065625C13.18025,15.46065625,21.72505,11.00415625,21.72505,11.00415625C21.72505,11.00415625,19.39625,7.47165625,19.39625,7.47165625C19.39625,7.47165625,22.09025,4.96290625,22.09025,4.96290625C22.09025,4.96290625,22.08875,4.96365625,22.08875,4.96365625ZM11.45605,10.93365625C11.45605,10.93365625,4.661,8.06115625,4.661,8.06115625C4.661,8.06115625,11.61805,4.9846562500000005,11.61805,4.9846562500000005C11.61805,4.9846562500000005,18.82325,7.42590625,18.82325,7.42590625C18.82325,7.42590625,11.45605,10.93290625,11.45605,10.93290625C11.45605,10.93290625,11.45605,10.93365625,11.45605,10.93365625Z" fill="#000000" fill-opacity="1"/></g></g></svg>