<svg xmlns="http://www.w3.org/2000/svg" xmlns:xlink="http://www.w3.org/1999/xlink"  version="1.1" width="24" height="24" viewBox="0 0 24 24"><defs><clipPath id="master_svg0_194_53348"><rect x="0" y="6.661338147750939e-16" width="24" height="24" rx="0"/></clipPath></defs><g transform="matrix(1,-2.7755575615628914e-17,2.7755575615628914e-17,1,-1.8488927466117464e-32,0)" clip-path="url(#master_svg0_194_53348)"><g><path d="M14.5504,3.743719000000001Q13.0067,2.200000000000001,10.82353,2.200000000000001Q8.64038,2.200000000000001,7.09666,3.743720000000001Q5.5529399999999995,5.287440000000001,5.5529399999999995,7.4705900000000005Q5.5529399999999995,9.65374,7.09666,11.19746Q8.64038,12.74118,10.82353,12.74118Q13.0067,12.74118,14.5504,11.19746Q16.094099999999997,9.65374,16.094099999999997,7.4705900000000005Q16.094099999999997,5.287440000000001,14.5504,3.743719000000001ZM8.22803,4.875090000000001Q9.30312,3.8000000000000007,10.82353,3.8000000000000007Q12.34394,3.8000000000000007,13.419,4.875090000000001Q14.4941,5.950180000000001,14.4941,7.4705900000000005Q14.4941,8.991,13.419,10.06609Q12.34394,11.141180000000002,10.82353,11.141180000000002Q9.30312,11.141180000000002,8.22803,10.06609Q7.15294,8.991,7.15294,7.4705900000000005Q7.15294,5.950180000000001,8.22803,4.875090000000001ZM8.588239999999999,16.0941L12.77941,16.0941Q12.8582,16.0941,12.93548,16.0787Q13.0128,16.0634,13.0856,16.0332Q13.1584,16.0031,13.2239,15.959300000000002Q13.2894,15.915500000000002,13.3451,15.8598Q13.4008,15.804100000000002,13.4446,15.738600000000002Q13.4884,15.673100000000002,13.5185,15.6003Q13.5487,15.5275,13.564,15.450200000000002Q13.5794,15.372900000000001,13.5794,15.2941Q13.5794,15.2153,13.564,15.138000000000002Q13.5487,15.0608,13.5185,14.988Q13.4884,14.915200000000002,13.4446,14.849700000000002Q13.4008,14.784100000000002,13.3451,14.7284Q13.2894,14.672700000000003,13.2239,14.628900000000002Q13.1584,14.5852,13.0856,14.555Q13.0128,14.524900000000002,12.93548,14.5095Q12.8582,14.4941,12.77941,14.4941L8.588239999999999,14.4941Q5.94214,14.4941,4.07107,16.3652Q2.2,18.2363,2.2,20.8824L2.2,22Q2.2,22.0788,2.215372,22.1561Q2.230744,22.2333,2.260896,22.3061Q2.291049,22.3789,2.3348240000000002,22.4445Q2.378599,22.51,2.434315,22.5657Q2.49003,22.6214,2.555544,22.6652Q2.621058,22.7089,2.693853,22.7391Q2.766649,22.7693,2.843928,22.7846Q2.9212069,22.8,3,22.8Q3.0787931,22.8,3.156072,22.7846Q3.233351,22.7693,3.306147,22.7391Q3.378942,22.7089,3.444456,22.6652Q3.50997,22.6214,3.565685,22.5657Q3.621401,22.51,3.6651759999999998,22.4445Q3.708951,22.3789,3.739104,22.3061Q3.769256,22.2333,3.784628,22.1561Q3.8,22.0788,3.8,22L3.8,20.8824Q3.8,18.899,5.20244,17.4966Q6.60488,16.0941,8.588239999999999,16.0941ZM19.2059,20.3373L21.4343,22.5657Q21.5468,22.6782,21.6939,22.7391Q21.8409,22.8,22,22.8Q22.1591,22.8,22.3061,22.7391Q22.4532,22.6782,22.5657,22.5657Q22.6782,22.4532,22.7391,22.3061Q22.8,22.1591,22.8,22Q22.8,21.8409,22.7391,21.6939Q22.6782,21.5468,22.5657,21.4343L20.3373,19.2059L22.5657,16.9774Q22.6782,16.864900000000002,22.7391,16.7179Q22.8,16.5709,22.8,16.4118Q22.8,16.2526,22.7391,16.105600000000003Q22.6782,15.9586,22.5657,15.8461Q22.4532,15.7336,22.3061,15.672700000000003Q22.1591,15.611800000000002,22,15.611800000000002Q21.8409,15.611800000000002,21.6939,15.672700000000003Q21.5468,15.7336,21.4343,15.8461L19.2059,18.0745L16.9774,15.8461Q16.8649,15.7336,16.7179,15.672700000000003Q16.5709,15.611800000000002,16.4118,15.611800000000002Q16.2526,15.611800000000002,16.105600000000003,15.672700000000003Q15.9586,15.7336,15.8461,15.8461Q15.7336,15.9586,15.6727,16.105600000000003Q15.6118,16.2526,15.6118,16.4118Q15.6118,16.5709,15.6727,16.7179Q15.7336,16.864900000000002,15.8461,16.9774L18.0745,19.2059L15.8461,21.4343Q15.7336,21.5468,15.6727,21.6939Q15.6118,21.8409,15.6118,22Q15.6118,22.1591,15.6727,22.3061Q15.7336,22.4532,15.8461,22.5657Q15.9586,22.6782,16.105600000000003,22.7391Q16.2526,22.8,16.4118,22.8Q16.5709,22.8,16.7179,22.7391Q16.8649,22.6782,16.9774,22.5657L19.2059,20.3373Z"  /></g></g></svg>