<svg xmlns="http://www.w3.org/2000/svg" xmlns:xlink="http://www.w3.org/1999/xlink" version="1.1" width="24"
    height="24" viewBox="0 0 24 24">
    <defs>
        <clipPath id="master_svg0_194_55828">
            <rect x="0" y="0" width="24" height="24" rx="0" />
        </clipPath>
    </defs>
    <g clip-path="url(#master_svg0_194_55828)">
        <g>
            <g>
                <path
                    d="M10.5,2.75C6.21979,2.75,2.75,6.21979,2.75,10.5C2.75,14.7802,6.21979,18.25,10.5,18.25C14.7802,18.25,18.25,14.7802,18.25,10.5C18.25,6.21979,14.7802,2.75,10.5,2.75ZM1.25,10.5C1.25,5.39137,5.39137,1.25,10.5,1.25C15.6086,1.25,19.75,5.39137,19.75,10.5C19.75,15.6086,15.6086,19.75,10.5,19.75C5.39137,19.75,1.25,15.6086,1.25,10.5Z"
                    fill-rule="evenodd" fill-opacity="1" />
            </g>
            <g>
                <path
                    d="M15.96967,15.96967C16.262563,15.6767767,16.737437,15.6767767,17.03033,15.96967C17.03033,15.96967,21.53033,20.46967,21.53033,20.46967C21.82322,20.76256,21.82322,21.23744,21.53033,21.53033C21.23744,21.82322,20.76256,21.82322,20.46967,21.53033C20.46967,21.53033,15.96967,17.03033,15.96967,17.03033C15.6767767,16.737437,15.6767767,16.262563,15.96967,15.96967Z"
                    fill-rule="evenodd" fill-opacity="1" />
            </g>
        </g>
    </g>
</svg>