<svg xmlns="http://www.w3.org/2000/svg" xmlns:xlink="http://www.w3.org/1999/xlink" fill="none" version="1.1" width="166.66793823242188" height="125" viewBox="0 0 166.66793823242188 125"><g><path d="M83.334,125C52.7777,125,25.5173,105.717,1.61315,68.0458C-0.537716,64.6614,-0.537716,60.3386,1.61315,56.9542C25.5173,19.2833,52.7777,0,83.334,0C113.89,0,141.151,19.2833,165.055,56.9542C167.206,60.3386,167.206,64.6614,165.055,68.0458C141.151,105.717,113.89,125,83.334,125ZM83.334,12.5C58.0381,12.5,34.6111,28.8771,12.9986,62.5C34.6111,96.1229,58.0381,112.5,83.334,112.5C108.63,112.5,132.057,96.1229,153.669,62.5C132.057,28.8771,108.63,12.5,83.334,12.5ZM83.334,91.6667C67.0819,91.6667,53.9069,78.6083,53.9069,62.5C53.9069,46.3917,67.0819,33.3333,83.334,33.3333C99.5861,33.3333,112.761,46.3917,112.761,62.5C112.761,78.6083,99.5861,91.6667,83.334,91.6667ZM83.334,79.1667C92.6215,79.1667,100.151,71.7042,100.151,62.5C100.151,53.2958,92.6215,45.8333,83.334,45.8333C74.0465,45.8333,66.5173,53.2958,66.5173,62.5C66.5173,71.7042,74.0465,79.1667,83.334,79.1667Z" fill="#000000" fill-opacity="1" style="mix-blend-mode:passthrough"/></g></svg>