<svg width="41" height="32" viewBox="0 0 41 32" fill="none" xmlns="http://www.w3.org/2000/svg">
<rect x="0.5" y="0.5" width="40" height="31" rx="5.5" fill="white" stroke="#E4E3E6"/>
<g clip-path="url(#clip0_500_93)">
<path d="M29.9808 10.4818C27.8109 9.27834 25.0361 9.99348 23.7822 12.0784L20.6212 17.3394C19.7065 18.8587 20.884 19.3895 22.197 20.1459L25.2386 21.8326C26.2686 22.4034 27.5842 22.0645 28.1784 21.0762L31.4279 15.6695C32.5195 13.8527 31.8718 11.5307 29.9808 10.4818Z" fill="#EA4335"/>
<path d="M26.404 12.6594L23.3624 10.9727C21.6833 10.0772 20.7325 10.0179 20.0431 11.0707L15.5572 18.5352C14.3045 20.6188 15.0502 23.2835 17.2188 24.4844C19.1097 25.5333 21.5264 24.9109 22.6181 23.0941L27.19 15.4852C27.7867 14.4956 27.434 13.2302 26.404 12.6594Z" fill="#FBBC04"/>
<path d="M26.9904 8.82218L24.854 7.63673C22.491 6.32628 19.4695 7.10327 18.1056 9.37368L14.038 16.1424C13.4371 17.141 13.7939 18.4192 14.8333 18.9952L17.2258 20.3224C18.4073 20.9783 19.9174 20.5891 20.6 19.4539L25.247 11.7214C26.2099 10.1197 28.3409 9.57083 30.0079 10.496L26.9904 8.82218Z" fill="#34A853"/>
<path d="M18.6825 11.3103L16.3732 10.0321C15.3432 9.46258 14.0276 9.80017 13.4334 10.7872L10.6627 15.3873C9.29879 17.6513 10.1075 20.5479 12.4705 21.8545L14.2287 22.8273L16.3611 24.0076L17.2865 24.5192C15.6436 23.4626 15.1219 21.3455 16.1264 19.6781L16.8439 18.4875L19.4711 14.1258C20.0639 13.1414 19.7112 11.8799 18.6825 11.3103Z" fill="#4285F4"/>
</g>
<defs>
<clipPath id="clip0_500_93">
<rect width="22" height="18" fill="white" transform="translate(10 7)"/>
</clipPath>
</defs>
</svg>
