<svg xmlns="http://www.w3.org/2000/svg" xmlns:xlink="http://www.w3.org/1999/xlink" version="1.1" width="28" height="28"
    viewBox="0 0 28 28">
    <defs>
        <clipPath id="master_svg0_217_0482423/194_55508">
            <rect x="0" y="0" width="28" height="28" rx="0" />
        </clipPath>
    </defs>
    <g clip-path="url(#master_svg0_217_0482423/194_55508)">
        <g>
            <path
                d="M5.25072,17.26509609375L5.25072,11.06687609375C5.25072,6.24357609375,9.1678,2.33349609375,13.9998,2.33349609375C18.831899999999997,2.33349609375,22.749,6.24357609375,22.749,11.06686609375L22.749,17.26509609375L24.4062,20.57399609375C24.6973,21.15479609375,24.2741,21.83779609375,23.6237,21.83779609375L4.376011,21.83779609375C3.725594,21.83779609375,3.302677,21.15479609375,3.5934692,20.57399609375L5.25072,17.26509609375ZM22.2082,20.09129609375L21.0914,17.86179609375C21.0307,17.74059609375,20.999,17.606896093750002,20.999,17.47129609375L20.999,11.06687609375C20.999,7.20812609375,17.865299999999998,4.08028609375,13.9998,4.08028609375C10.13439,4.08028609375,7.000719999999999,7.20811609375,7.000719999999999,11.06687609375L7.000719999999999,17.47099609375C7.000719999999999,17.60659609375,6.96893,17.74019609375,6.90826,17.86179609375L5.79147,20.09099609375L22.2082,20.09099609375L22.2082,20.09129609375ZM10.086549999999999,24.25629609375C9.71488,23.94839609375,9.66403,23.39709609375,9.97309,23.02639609375C10.28234,22.65549609375,10.83345,22.60479609375,11.20509,22.91319609375C11.99004,23.56569609375,12.97913,23.92189609375,13.9998,23.91979609375C15.0203,23.92189609375,16.0092,23.56579609375,16.794,22.91349609375C17.1657,22.60509609375,17.7168,22.65579609375,18.026,23.02669609375C18.335,23.39749609375,18.284,23.94879609375,17.912300000000002,24.25659609375C16.813200000000002,25.16979609375,15.4288,25.66879609375,13.9998,25.66679609375C12.55114,25.66679609375,11.17797,25.16219609375,10.086549999999999,24.25599609375L10.086549999999999,24.25629609375Z"
                fill-opacity="1" />
        </g>
    </g>
</svg>