<svg xmlns="http://www.w3.org/2000/svg" xmlns:xlink="http://www.w3.org/1999/xlink" fill="none" version="1.1" width="24" height="24" viewBox="0 0 24 24"><defs><clipPath id="master_svg0_194_42279"><rect x="0" y="0" width="24" height="24" rx="0"/></clipPath></defs><g clip-path="url(#master_svg0_194_42279)"><g><g transform="matrix(0.7071067094802856,0.7071068286895752,-0.70710688829422,0.7071067094802856,3.798465402984732,-3.905656554403663)"><path d="M11.556896683807373,3.56926521875C11.556896683807373,3.56926521875,7.9176766838073735,2.65945941875,7.9176766838073735,2.65945941875C7.447272683807373,2.54185921875,6.970857683807373,2.81640921875,6.872698683807373,3.29124721875C6.633937783807373,4.44623421875,6.355130683807373,6.520164218750001,7.074844683807373,7.76716421875C8.102246683807373,9.547274218750001,11.599136683807373,10.39542421875,11.724696683807373,10.42538421875C11.724696683807373,10.42538421875,11.732086683807374,10.42701421875,11.732086683807374,10.42701421875C11.858036683807374,10.45280421875,14.995456683807372,11.09095421875,17.04607668380737,11.09096421875C19.096776683807374,11.09098421875,22.234276683807373,10.45284421875,22.360376683807374,10.42701421875C22.360376683807374,10.42701421875,22.367876683807374,10.42538421875,22.367876683807374,10.42538421875C22.493576683807373,10.39536421875,25.990076683807374,9.54709421875,27.017676683807373,7.76716421875C27.737476683807373,6.5203542187500005,27.459376683807374,4.44663421875,27.220976683807372,3.29156021875C27.122876683807373,2.81659221875,26.64637668380737,2.54189591875,26.175876683807374,2.65952091875C26.175876683807374,2.65952091875,22.536576683807375,3.56934421875,22.536576683807375,3.56934421875C22.068076683807373,3.68648421875,21.774076683807372,4.15100421875,21.868776683807376,4.62462421875C21.868776683807376,4.62462421875,22.18797668380737,6.220334218750001,22.18797668380737,6.220334218750001C22.28557668380737,6.70832421875,21.971776683807374,7.18199421875,21.481776683807375,7.26922421875C20.375776683807374,7.46613421875,18.45467668380737,7.76716421875,17.04627668380737,7.76716421875C15.637956683807372,7.76716421875,13.717116683807372,7.46620421875,12.611076683807372,7.26928421875C12.120996683807373,7.18203421875,11.807176683807374,6.70815421875,11.904986683807373,6.22007421875C11.904986683807373,6.22007421875,12.224646683807373,4.62487421875,12.224646683807373,4.62487421875C12.319576683807373,4.15116421875,12.025606683807373,3.68644421875,11.556896683807373,3.56926521875Z" fill="#666666" fill-opacity="1"/></g><g transform="matrix(0.7071067094802856,0.7071068286895752,-0.7071068286895752,0.7071067094802856,3.119908318184173,-4.186420707601769)"><path d="M6.886386472869873,2.8724615625C7.068837472869873,1.9898725625,7.946300472869873,1.5161315625,8.760530472869874,1.7196891625C8.760530472869874,1.7196891625,12.399760472869872,2.6294955625,12.399760472869872,2.6294955625C13.219990472869874,2.8345515624999997,13.734440472869874,3.6478215625,13.568310472869873,4.4768115625C13.568310472869873,4.4768115625,13.248650472869873,6.0720115625,13.248650472869873,6.0720115625C13.223480472869873,6.1976415625,13.303460472869872,6.3010915625,13.408290472869872,6.3197615625C14.515000472869872,6.5167915625,16.382640472869873,6.8071315625,17.724510472869873,6.8071315625C19.066510472869872,6.8071315625,20.93441047286987,6.5167315625,22.041110472869875,6.3197015625C22.145910472869872,6.3010415625,22.225910472869874,6.1976315625,22.200710472869872,6.0720215625C22.200710472869872,6.0720215625,21.881610472869873,4.476311562499999,21.881610472869873,4.476311562499999C21.715810472869872,3.6474815625000003,22.230310472869874,2.8345715625,23.050310472869874,2.6295735625C23.050310472869874,2.6295735625,26.689610472869873,1.7197506625,26.689610472869873,1.7197506625C27.504010472869872,1.5161495624999999,28.381610472869873,1.9901495625,28.56381047286987,2.8729715625C28.687710472869874,3.4731315625,28.825410472869873,4.3271315625,28.835510472869874,5.2058015625C28.845310472869873,6.0675615625,28.73441047286987,7.0443015625,28.283710472869874,7.8250615625C27.650510472869872,8.9218015625,26.331710472869872,9.6508415625,25.301110472869873,10.0944215625C24.231610472869875,10.5547915625,23.283510472869875,10.7850015625,23.203610472869872,10.8040715625C23.203610472869872,10.8040715625,23.192110472869874,10.8068315625,23.192110472869874,10.8068315625C23.192110472869874,10.8068315625,23.174810472869872,10.8105215625,23.174810472869872,10.8105215625C23.061910472869872,10.8336415625,19.855910472869873,11.4882115625,17.724410472869874,11.4882015625C15.592900472869873,11.4881815625,12.386930472869874,10.8335215625,12.274220472869873,10.8104515625C12.274220472869873,10.8104515625,12.264350472869873,10.8084215625,12.264350472869873,10.8084215625C12.264350472869873,10.8084215625,12.245450472869873,10.8041815625,12.245450472869873,10.8041815625C12.165640472869873,10.7851415625,11.217520472869873,10.5548815625,10.147940472869873,10.0945315625C9.117360472869873,9.6509715625,7.798440472869873,8.9219015625,7.165351472869873,7.8249915625C6.714637472869873,7.0440715625,6.603940112869873,6.0671815625,6.614027150869873,5.2053615625C6.6243120728698734,4.3266115625,6.762331472869873,3.4725715624999998,6.886386472869873,2.8724615625ZM8.281180472869874,3.0548015625C8.246720472869873,3.0753315624999997,8.224260472869872,3.1050815624999997,8.215540472869874,3.1472315625C8.100840472869873,3.7021015625,7.980080472869873,4.4625215625,7.971190472869873,5.2212415624999995C7.962120472869874,5.9968715625,8.071870472869874,6.6804515625,8.340870472869874,7.1465315625C8.735190472869874,7.8297415625,9.678410472869873,8.4148015625,10.684520472869874,8.8478315625C11.620510472869874,9.2506915625,12.459080472869873,9.4593115625,12.553530472869873,9.4822115625C12.766650472869873,9.5256115625,15.780590472869873,10.1309215625,17.724410472869874,10.1309415625C19.668310472869873,10.1309515625,22.682410472869872,9.5256115625,22.895510472869873,9.4822115625C22.990110472869873,9.4592615625,23.828610472869872,9.2505915625,24.764510472869873,8.847751562500001C25.770610472869873,8.414711562499999,26.713810472869874,7.8296515625,27.108210472869875,7.1464615625C27.377310472869873,6.6804215625,27.487210472869872,5.9968915625,27.47831047286987,5.2213215625C27.469610472869874,4.4626515625,27.349110472869874,3.7022615625,27.234610472869875,3.1473415625000003C27.225910472869874,3.1051815625000003,27.203410472869873,3.0754215625,27.16891047286987,3.0548815625000003C27.132110472869872,3.0329515625,27.079410472869874,3.0213315625,27.018710472869873,3.0364915625C27.018710472869873,3.0364915625,23.379510472869875,3.9463115625,23.379510472869875,3.9463115625C23.262310472869874,3.9756015625,23.18881047286987,4.0917215625,23.212510472869873,4.2101315625C23.212510472869873,4.2101315625,23.531610472869872,5.8058415625,23.531610472869872,5.8058415625C23.701710472869873,6.6562215625,23.154110472869874,7.5001415625,22.27901047286987,7.6559515625C21.17371047286987,7.8527415625,19.19941047286987,8.1643915625,17.724510472869873,8.1643915625C16.24982047286987,8.1643915625,14.275780472869872,7.8528015625,13.170390472869872,7.6560115625C12.295060472869874,7.5001715625,11.747410472869873,6.6558715625,11.917850472869873,5.8053315625C11.917850472869873,5.8053315625,12.237510472869873,4.2101315625,12.237510472869873,4.2101315625C12.261240472869872,4.0917115625000005,12.187750472869872,3.9755215625,12.070570472869873,3.9462315625C12.070570472869873,3.9462315625,8.431350472869873,3.0364215625,8.431350472869873,3.0364215625C8.370730472869873,3.0212715625,8.317980472869873,3.0328815625,8.281180472869874,3.0548015625Z" fill-rule="evenodd" fill="#666666" fill-opacity="1"/></g></g></g></svg>