<svg xmlns="http://www.w3.org/2000/svg" xmlns:xlink="http://www.w3.org/1999/xlink"  version="1.1" width="22" height="22" viewBox="0 0 22 22"><defs><clipPath id="master_svg0_219_654920"><rect x="0" y="0" width="22" height="22" rx="0"/></clipPath></defs><g clip-path="url(#master_svg0_219_654920)"><g><path d="M4.65063625,7.705305C5.26755625,4.776625,7.86628625,2.578125,10.97851625,2.578125C14.09070625,2.578125,16.68950625,4.776625,17.306406250000002,7.705305C19.07040625,7.863155,20.45310625,9.345295,20.45310625,11.150395L20.45310625,11.751955C20.45310625,13.646625,18.92980625,15.185525,17.04110625,15.210625C16.12570625,17.670025000000003,13.75670625,19.421925,10.97851625,19.421925C10.56322625,19.421925,10.22656625,19.085225,10.22656625,18.669925C10.22656625,18.254625,10.56322625,17.917925,10.97851625,17.917925C13.71940625,17.917925,15.94140625,15.696025,15.94140625,12.955125L15.94140625,9.044925C15.94140625,6.303985,13.71940625,4.082035,10.97851625,4.082035C8.23758625,4.082035,6.01562625,6.303985,6.01562625,9.044925L6.01562625,14.459025C6.01562625,14.874325,5.67896625,15.210925,5.26367625,15.210925L4.96288625,15.210925C3.05254625,15.210925,1.50390625,13.662325,1.50390625,11.751955L1.50390625,11.150395C1.50390625,9.345295,2.88659625,7.863155,4.65063625,7.705305ZM4.51171625,9.247625C3.64946625,9.451295,3.0078162500000003,10.225915,3.0078162500000003,11.150395L3.0078162500000003,11.751955C3.0078162500000003,12.676425,3.64946625,13.451025,4.51171625,13.654725L4.51171625,9.247625ZM17.44530625,12.955125L17.44530625,13.654725C18.30760625,13.451025,18.94920625,12.676425,18.94920625,11.751955L18.94920625,11.150395C18.94920625,10.225915,18.30760625,9.451295,17.44530625,9.247625L17.44530625,12.955125Z"  /></g></g></svg>