<svg xmlns="http://www.w3.org/2000/svg" xmlns:xlink="http://www.w3.org/1999/xlink" fill="none" version="1.1" width="24" height="24" viewBox="0 0 24 24"><defs><clipPath id="master_svg0_219_851527"><rect x="2" y="1.599609375" width="20" height="20" rx="0"/></clipPath></defs><g><g clip-path="url(#master_svg0_219_851527)"><g><path d="M13.25,17.849609375C13.25,17.849609375,18.25,17.849609375,18.25,17.849609375C18.25,17.849609375,18.25,19.099609375,18.25,19.099609375C18.25,19.099609375,13.25,19.099609375,13.25,19.099609375C13.25,19.099609375,13.25,17.849609375,13.25,17.849609375ZM13.25,15.349609375C13.25,15.349609375,20.75,15.349609375,20.75,15.349609375C20.75,15.349609375,20.75,16.599609375,20.75,16.599609375C20.75,16.599609375,13.25,16.599609375,13.25,16.599609375C13.25,16.599609375,13.25,15.349609375,13.25,15.349609375ZM13.25,12.849609375C13.25,12.849609375,20.75,12.849609375,20.75,12.849609375C20.75,12.849609375,20.75,14.099609375,20.75,14.099609375C20.75,14.099609375,13.25,14.099609375,13.25,14.099609375C13.25,14.099609375,13.25,12.849609375,13.25,12.849609375Z" fill="#000000" fill-opacity="1"/></g><g><path d="M14.843099952316285,8.610229375C14.843099952316285,8.610229375,11.999999952316283,2.849609375,11.999999952316283,2.849609375C11.999999952316283,2.849609375,9.156879952316284,8.610229375,9.156879952316284,8.610229375C9.156879952316284,8.610229375,2.799999952316284,9.533979375000001,2.799999952316284,9.533979375000001C2.799999952316284,9.533979375000001,7.399999952316284,14.018409375,7.399999952316284,14.018409375C7.399999952316284,14.018409375,6.313749952316284,20.349609375,6.313749952316284,20.349609375C6.313749952316284,20.349609375,10.749999952316283,18.017709375000003,10.749999952316283,18.017709375000003C10.749999952316283,18.017709375000003,10.749999952316283,16.605209375,10.749999952316283,16.605209375C10.749999952316283,16.605209375,7.974379952316284,18.064609375,7.974379952316284,18.064609375C7.974379952316284,18.064609375,8.631879952316284,14.229609375,8.631879952316284,14.229609375C8.631879952316284,14.229609375,8.743129952316284,13.581509375,8.743129952316284,13.581509375C8.743129952316284,13.581509375,8.272499952316284,13.123409375,8.272499952316284,13.123409375C8.272499952316284,13.123409375,5.4862499523162835,10.406479375,5.4862499523162835,10.406479375C5.4862499523162835,10.406479375,9.336879952316284,9.847109374999999,9.336879952316284,9.847109374999999C9.336879952316284,9.847109374999999,9.986879952316285,9.752729375000001,9.986879952316285,9.752729375000001C9.986879952316285,9.752729375000001,10.278129952316284,9.163359374999999,10.278129952316284,9.163359374999999C10.278129952316284,9.163359374999999,11.999999952316283,5.673989375,11.999999952316283,5.673989375C11.999999952316283,5.673989375,13.721899952316285,9.163359374999999,13.721899952316285,9.163359374999999C13.721899952316285,9.163359374999999,14.013099952316285,9.752729375000001,14.013099952316285,9.752729375000001C14.013099952316285,9.752729375000001,14.663099952316283,9.847109374999999,14.663099952316283,9.847109374999999C14.663099952316283,9.847109374999999,19.321899952316283,10.525229375,19.321899952316283,10.525229375C19.321899952316283,10.525229375,19.499999952316283,9.287109375,19.499999952316283,9.287109375C19.499999952316283,9.287109375,14.843099952316285,8.610229375,14.843099952316285,8.610229375Z" fill="#000000" fill-opacity="1"/></g></g></g></svg>