<svg xmlns="http://www.w3.org/2000/svg" xmlns:xlink="http://www.w3.org/1999/xlink" fill="none" version="1.1" width="24" height="24" viewBox="0 0 24 24"><defs><clipPath id="master_svg0_219_655176"><rect x="0" y="0" width="24" height="24" rx="0"/></clipPath></defs><g clip-path="url(#master_svg0_219_655176)"><g><path d="M15.406875,9.044921875L9.046875,15.404921875L10.096875,16.454921875L16.456875,10.094921875L15.406875,9.044921875Z" fill="#2C2C2C" fill-opacity="1"/></g><g><path d="M12.74792625,5.324879375L10.09292625,7.979879375L11.15792625,8.999879374999999L13.81295625,6.389879375C15.27925625,4.923559375,17.656656249999997,4.923559375,19.12295625,6.389879375C20.58925625,7.856199375,20.58925625,10.233559374999999,19.12295625,11.699879375L16.49795625,14.339909375L17.56295625,15.404909375L20.17295625,12.749879375C22.22325625,10.699519375000001,22.22325625,7.375229375,20.17295625,5.324879375C18.122556250000002,3.274519375,14.79825625,3.274520375,12.74792625,5.324879375ZM11.682926250000001,19.109909375C10.24771625,20.715409375,7.75822625,20.785109375,6.23546625,19.262309375C4.71271725,17.739609375,4.78238825,15.250109375,6.38792625,13.814909375L8.997926249999999,11.159879375L7.93292625,10.094879375L5.32292625,12.749879375C3.27256725,14.800209375,3.27256725,18.124509375000002,5.32292625,20.174909375C7.37328625,22.225209375,10.697566250000001,22.225209375,12.74792625,20.174909375L15.40295625,17.519909374999997L14.33795625,16.499909375L11.682926250000001,19.109909375Z" fill="#2C2C2C" fill-opacity="1"/></g></g></svg>