<svg xmlns="http://www.w3.org/2000/svg" xmlns:xlink="http://www.w3.org/1999/xlink" fill="none" version="1.1" width="56" height="56" viewBox="0 0 56 56"><defs><clipPath id="master_svg0_219_657427"><rect x="0" y="0" width="56" height="56" rx="0"/></clipPath></defs><g clip-path="url(#master_svg0_219_657427)"><g><path d="M19.1931,30.4899C19.8681,31.17,20.962899999999998,31.17,21.637999999999998,30.4899C22.313200000000002,29.8103,22.313200000000002,28.7078,21.637999999999998,28.0277L14.40258,20.7409L45.7711,20.7409C46.7258,20.7409,47.5,19.9615,47.5,18.9999C47.5,18.0384,46.7259,17.259,45.7711,17.259L14.40258,17.259L21.637999999999998,9.97226C22.313200000000002,9.29228,22.313200000000002,8.18991,21.637999999999998,7.509971C20.962899999999998,6.830033,19.8682,6.829987,19.1931,7.509971L9.006361,17.768900000000002C8.668619,18.109,8.5,18.554299999999998,8.5,19C8.5,19.4455,8.668802,19.8911,9.006361,20.231099999999998L19.1931,30.4899L19.1931,30.4899Z" fill="#F86C00" fill-opacity="1"/></g><g><path d="M47.3733,36.3451C47.3532,36.295,47.3303,36.246,47.3054,36.1976C47.3043,36.1953,47.3033,36.1929,47.3022,36.1907C47.2231,36.0389,47.1201,35.896699999999996,46.9936,35.7692L36.806799999999996,25.509992C36.1316,24.830003,35.037,24.830003,34.3618,25.509992C34.024100000000004,25.850079,33.8554,26.29553,33.8554,26.74112C33.8554,27.18662,34.0243,27.63235,34.3618,27.97226L41.5973,35.259L10.2287,35.259C9.273972,35.259,8.5,36.0385,8.5,37.0001C8.5,37.961600000000004,9.273972,38.741,10.2287,38.741L41.5973,38.741L34.3617,46.0278C34.024,46.3678,33.8553,46.813199999999995,33.8553,47.2589C33.8553,47.7044,34.0242,48.1502,34.3617,48.489999999999995C35.0369,49.17,36.1315,49.17,36.8067,48.489999999999995L46.9936,38.2313C47.5,37.7216,47.6266,36.9741,47.3733,36.3451Z" fill="#F86C00" fill-opacity="1"/></g></g></svg>