<svg xmlns="http://www.w3.org/2000/svg" xmlns:xlink="http://www.w3.org/1999/xlink"  version="1.1" width="22" height="22" viewBox="0 0 22 22"><defs><clipPath id="master_svg0_219_654944"><rect x="0" y="0" width="22" height="22" rx="0"/></clipPath></defs><g clip-path="url(#master_svg0_219_654944)"><g><path d="M2.127387,14.4011C2.464474,15.1717,2.909585,15.8902,3.44929,16.535C3.85238,17.0056,4.4817599999999995,17.215600000000002,5.08633,17.081200000000003C5.7695,16.9361,6.48193,17.037300000000002,7.09774,17.367C7.6854,17.678800000000003,8.1318,18.2037,8.34562,18.8341C8.5433,19.4231,9.06342,19.8447,9.680209999999999,19.9158C10.54867,20.0288,11.42807,20.0288,12.2965,19.9158C12.9141,19.8455,13.4352,19.4238,13.6332,18.8341C13.8522,18.2,14.3066,17.674599999999998,14.9023,17.367C15.5175,17.0378,16.229100000000003,16.9366,16.9116,17.081200000000003C17.5168,17.216,18.147,17.006,18.5507,16.535C19.0904,15.8902,19.5355,15.1717,19.8726,14.4011C20.1251,13.8318,19.995,13.1653,19.5469,12.733C18.5795,11.78073,18.5795,10.21977,19.5469,9.267520000000001C19.995,8.83525,20.1251,8.168669999999999,19.8726,7.59936C19.5323,6.82817,19.0836,6.10961,18.5401,5.46546C18.1371,4.99486,17.5077,4.78487,16.903100000000002,4.91929C16.223300000000002,5.06184,15.5151,4.96068,14.9023,4.6335C14.307,4.32536,13.8527,3.8001899999999997,13.6332,3.1664399999999997C13.4362,2.578627,12.9181,2.157315,12.3029,2.0846784C11.43437,1.9724859,10.55506,1.9724859,9.68656,2.0846784C9.06738,2.153445,8.544270000000001,2.575449,8.34562,3.1664399999999997C8.12969,3.79762,7.68104,4.3224,7.0914,4.6335C6.47618,4.96269,5.76459,5.0639,5.08211,4.91929C4.47683,4.78354,3.8461600000000002,4.99369,3.4429499999999997,5.46546C2.905474,6.11067,2.462511,6.82918,2.127387,7.59936C1.874893,8.168669999999999,2.00504565,8.835239999999999,2.453104,9.267520000000001C2.9139850000000003,9.72615,3.1748000000000003,10.34871,3.17856,10.99919C3.17535,11.65041,2.914501,12.2738,2.453104,12.733C2.0050453,13.1653,1.874893,13.8318,2.127387,14.4011ZM18.4513,8.26196C16.930799999999998,9.77363,16.930799999999998,12.2353,18.4513,13.747C18.4661,13.7618,18.4978,13.7999,18.483,13.8359C18.1989,14.4798,17.8259,15.0805,17.3747,15.6205C17.3321,15.6599,17.272,15.6744,17.2161,15.6586C16.179000000000002,15.4394,15.0978,15.5946,14.1641,16.0968C13.2443,16.5825,12.5451,17.4021,12.2098,18.3874C12.1954,18.4351,12.1536,18.4694,12.1041,18.4742C11.36756,18.5695,10.62187,18.5695,9.88537,18.4742C9.83578,18.4694,9.79399,18.4351,9.779620000000001,18.3874C9.44436,17.4021,8.74511,16.5825,7.82532,16.0968C7.17502,15.747,6.44856,15.563,5.7102699999999995,15.5612C5.398960000000001,15.5619,5.08854,15.5945,4.78388,15.6586C4.7279800000000005,15.6744,4.6679200000000005,15.6599,4.62526,15.6205C4.17413,15.0805,3.80105,14.4798,3.5169699999999997,13.8359C3.50217,13.7999,3.53389,13.7618,3.5487,13.747C4.27764,13.0168,4.6876,12.0272,4.68871,10.99496C4.68111,9.96632,4.26753,8.9824,3.53812,8.257729999999999C3.52332,8.24291,3.49159,8.20481,3.5064,8.16882C3.79048,7.52493,4.16356,6.92419,4.61468,6.38422C4.65669,6.34516,4.715949999999999,6.33073,4.77119,6.34612C5.809,6.56551,6.89089,6.41028,7.82532,5.90791C8.74511,5.422219999999999,9.44436,4.60267,9.779620000000001,3.6173599999999997C9.79399,3.56962,9.83578,3.53532,9.88537,3.53056C10.62187,3.43529,11.36756,3.43529,12.1041,3.53056C12.1536,3.53532,12.1954,3.56962,12.2098,3.6173599999999997C12.5451,4.60267,13.2443,5.422219999999999,14.1641,5.90791C15.0978,6.41013,16.179000000000002,6.56537,17.2161,6.34612C17.272,6.33036,17.3321,6.34479,17.3747,6.38422C17.826,6.92372,18.1984,7.52458,18.4809,8.16882C18.4978,8.20481,18.4661,8.24291,18.4513,8.257729999999999L18.4513,8.26196Z" /></g><g><path d="M11.00234,7.000000378709C8.792159999999999,6.999139952,7.000000378709,8.79025,7.000000378709,11C6.999140709,13.20889,8.79025,15,11,15C13.210180000000001,14.99957,15.00129,13.20741,15,10.99767C14.99743,8.79088,13.20912,7.00257446,11.00234,7.000000378709ZM13.39113,10.99767C13.392420000000001,12.317260000000001,12.32349,13.38793,11.0039,13.38879C9.6843,13.38966,8.61398,12.32038,8.61355,11.000779999999999C8.61312,9.68118,9.682739999999999,8.61121,11.00234,8.61121C12.32018,8.61249,13.38855,9.67982,13.39113,10.99767Z" /></g></g></svg>