<svg xmlns="http://www.w3.org/2000/svg" xmlns:xlink="http://www.w3.org/1999/xlink" fill="none" version="1.1" width="24" height="24" viewBox="0 0 24 24"><g><g><ellipse cx="12" cy="12" rx="12" ry="12" fill="#333333" fill-opacity="1"/></g><g transform="matrix(0.7071067690849304,-0.7071067690849304,0.7071067690849304,0.7071067690849304,-7.555116398027167,5.760335189988837)"><path d="M3.17578125,18.240000000000002C3.17578125,17.85707,3.48620025,17.54667,3.86911425,17.54667C3.86911425,17.54667,8.722451249999999,17.54667,8.722451249999999,17.54667C8.722451249999999,17.54667,8.722451249999999,12.693332999999999,8.722451249999999,12.693332999999999C8.722451249999999,12.310419,9.03285125,12,9.41578125,12C9.79871125,12,10.10911125,12.310419,10.10911125,12.693332999999999C10.10911125,12.693332999999999,10.10911125,17.54667,10.10911125,17.54667C10.10911125,17.54667,14.96248125,17.54667,14.96248125,17.54667C15.34538125,17.54667,15.65578125,17.85707,15.65578125,18.240000000000002C15.65578125,18.62293,15.34538125,18.933329999999998,14.96248125,18.933329999999998C14.96248125,18.933329999999998,10.10911125,18.933329999999998,10.10911125,18.933329999999998C10.10911125,18.933329999999998,10.10911125,23.7867,10.10911125,23.7867C10.10911125,24.169600000000003,9.79871125,24.48,9.41578125,24.48C9.03285125,24.48,8.722451249999999,24.169600000000003,8.722451249999999,23.7867C8.722451249999999,23.7867,8.722451249999999,18.933329999999998,8.722451249999999,18.933329999999998C8.722451249999999,18.933329999999998,3.86911425,18.933329999999998,3.86911425,18.933329999999998C3.48620025,18.933329999999998,3.17578125,18.62293,3.17578125,18.240000000000002Z" fill="#FFFFFF" fill-opacity="1"/></g></g></svg>