<svg xmlns="http://www.w3.org/2000/svg" xmlns:xlink="http://www.w3.org/1999/xlink" fill="none" version="1.1" width="20" height="20" viewBox="0 0 20 20"><defs><clipPath id="master_svg0_194_11815"><rect x="0" y="0" width="20" height="20" rx="0"/></clipPath></defs><g clip-path="url(#master_svg0_194_11815)"><g><path d="M9.9999559765625,2.8921617529296872C15.0383259765625,2.8999717529296873,18.4572259765625,8.018191752929688,16.5350259765625,12.675571752929688C14.6129259765625,17.332871752929687,8.5793659765625,18.549971752929686,5.0020659765625,15.001871752929688C1.4247699765625,11.453851752929687,2.5922159765625,5.410521752929688,7.2336159765625,3.4501717529296876C8.1087959765625,3.0799417529296873,9.0496959765625,2.8901517529296874,9.9999559765625,2.8921617529296872ZM9.9999559765625,1.6666717529296875C5.3976359765624995,1.6666717529296875,1.6666259765625,5.397681752929687,1.6666259765625,10.000001752929688C1.6666259765625,14.602371752929688,5.3976359765624995,18.333371752929686,9.9999559765625,18.333371752929686C14.6023259765625,18.333371752929686,18.3333259765625,14.602371752929688,18.3333259765625,10.000001752929688C18.3333259765625,5.397681752929687,14.6023259765625,1.6666717529296875,9.9999559765625,1.6666717529296875Z" fill="#0000FF" fill-opacity="1"/></g><g><path d="M9.9999599765625,14.166658247070313C9.5397229765625,14.166658247070313,9.1666259765625,13.896488247070312,9.1666259765625,13.563218247070314L9.1666259765625,8.936776247070313C9.1666259765625,8.603501247070312,9.5397219765625,8.333328247070312,9.9999599765625,8.333328247070312C10.4601959765625,8.333328247070312,10.8332959765625,8.603501247070312,10.8332959765625,8.936776247070313L10.8332959765625,13.563218247070314C10.8332959765625,13.896488247070312,10.4601959765625,14.166658247070313,9.9999599765625,14.166658247070313Z" fill="#0000FF" fill-opacity="1"/></g><g><path d="M10.8332959765625,6.666661247070312Q10.8332959765625,6.748737247070313,10.8172859765625,6.8292362470703125Q10.801265976562501,6.909738247070313,10.7698559765625,6.985568247070312Q10.7384459765625,7.061388247070313,10.6928559765625,7.129638247070313Q10.6472559765625,7.197878247070312,10.5892159765625,7.255918247070312Q10.5311759765625,7.313958247070312,10.4629359765625,7.359548247070313Q10.3946959765625,7.405148247070312,10.318865976562499,7.436558247070312Q10.2430359765625,7.467968247070313,10.1625349765625,7.483978247070312Q10.0820359765625,7.499998247070312,9.9999599765625,7.499998247070312Q9.9178829765625,7.499998247070312,9.8373839765625,7.483978247070312Q9.7568849765625,7.467968247070313,9.6810569765625,7.436558247070312Q9.6052279765625,7.405148247070312,9.5369839765625,7.359548247070313Q9.4687399765625,7.313958247070312,9.4107039765625,7.255918247070312Q9.3526669765625,7.197878247070312,9.3070679765625,7.129638247070313Q9.2614688765625,7.061388247070313,9.2300596765625,6.985568247070312Q9.1986504765625,6.909738247070313,9.1826382765625,6.8292362470703125Q9.1666259765625,6.748737247070313,9.1666259765625,6.666661247070312Q9.1666259765625,6.584585247070312,9.1826382765625,6.504086247070313Q9.1986504765625,6.423587247070312,9.2300596765625,6.347758247070312Q9.2614688765625,6.271930247070313,9.3070679765625,6.203686247070313Q9.3526669765625,6.135442247070312,9.4107039765625,6.0774062470703125Q9.4687399765625,6.019369247070313,9.5369839765625,5.973770247070313Q9.6052279765625,5.928171147070312,9.6810569765625,5.8967619470703125Q9.7568849765625,5.865352747070313,9.8373839765625,5.849340547070312Q9.9178829765625,5.8333282470703125,9.9999599765625,5.8333282470703125Q10.0820359765625,5.8333282470703125,10.1625349765625,5.849340547070312Q10.2430359765625,5.865352747070313,10.318865976562499,5.8967619470703125Q10.3946959765625,5.928171147070312,10.4629359765625,5.973770247070313Q10.5311759765625,6.019369247070313,10.5892159765625,6.0774062470703125Q10.6472559765625,6.135442247070312,10.6928559765625,6.203686247070313Q10.7384459765625,6.271930247070313,10.7698559765625,6.347758247070312Q10.801265976562501,6.423587247070312,10.8172859765625,6.504086247070313Q10.8332959765625,6.584585247070312,10.8332959765625,6.666661247070312Z" fill="#0000FF" fill-opacity="1"/></g></g></svg>