<svg xmlns="http://www.w3.org/2000/svg" xmlns:xlink="http://www.w3.org/1999/xlink"  version="1.1" width="22" height="22" viewBox="0 0 22 22"><defs><clipPath id="master_svg0_219_654912"><rect x="0" y="0" width="22" height="22" rx="0"/></clipPath></defs><g clip-path="url(#master_svg0_219_654912)"><g><path d="M11,3C11.21039,3,11.38095,3.1705579999999998,11.38095,3.380952L11.38095,4.14286C11.38095,4.35325,11.21039,4.52381,11,4.52381L4.52381,4.52381L4.52381,17.4762L11,17.4762C11.21039,17.4762,11.38095,17.6467,11.38095,17.857100000000003L11.38095,18.619C11.38095,18.8294,11.21039,19,11,19L4.52381,19C3.711848,19,3.0425035,18.363300000000002,3.00190465,17.5524L3,17.4762L3,4.52381C2.999999476842,3.711846,3.636672,3.0425022,4.44762,3.00190465L4.52381,3L11,3ZM14.4747,6.921139999999999L17.7455,10.192C18.1711,10.617650000000001,18.1936,11.30041,17.7969,11.75314L17.7455,11.808L14.4747,15.0789C14.3259,15.2276,14.0848,15.2276,13.936,15.0789L13.3973,14.5402C13.2486,14.3914,13.2486,14.1503,13.3973,14.0015L15.6362,11.7619L7.95238,11.7619C7.74199,11.7619,7.57143,11.59135,7.57143,11.38095L7.57143,10.61905C7.57143,10.40865,7.74199,10.23809,7.95238,10.23809L15.6362,10.23809L13.3973,7.99848C13.2486,7.84971,13.2486,7.60857,13.3973,7.45981L13.936,6.921139999999999C14.0848,6.77243,14.3259,6.77243,14.4747,6.921139999999999Z" /></g></g></svg>