<svg xmlns="http://www.w3.org/2000/svg" xmlns:xlink="http://www.w3.org/1999/xlink" version="1.1" width="28" height="28"
    viewBox="0 0 28 28">
    <defs>
        <clipPath id="master_svg0_217_0482423/194_55510">
            <rect x="0" y="0" width="28" height="28" rx="0" />
        </clipPath>
    </defs>
    <g clip-path="url(#master_svg0_217_0482423/194_55510)">
        <g>
            <path
                d="M23.625,21C24.1082,21,24.5,20.6082,24.5,20.125L24.5,7.875C24.5,7.39175,24.1082,7,23.625,7L4.375,7C3.89175,7,3.5,7.39175,3.5,7.875L3.5,20.125C3.5,20.6082,3.89175,21,4.375,21L23.625,21ZM23.625,22.75L4.375,22.75C2.92525,22.75,1.750000133514,21.5747,1.75,20.125L1.75,7.875C1.749999866486,6.42525,2.92525,5.25,4.375,5.25L23.625,5.25C25.0747,5.25,26.25,6.42525,26.25,7.875L26.25,20.125C26.25,21.5747,25.0747,22.75,23.625,22.75Z"
                fill-opacity="1" />
        </g>
        <g>
            <path
                d="M21.46486875,7.9801146875C21.89456875,7.7112396875,22.46206875,7.8625448875,22.70086875,8.3096356875C22.93966875,8.7567266875,22.74976875,9.3125396875,22.28736875,9.5201196875L14.14987875,13.8951096875C13.87914875,14.051419687500001,13.54560875,14.051419687500001,13.27487875,13.8951096875L5.67113075,9.5201196875C5.25070365,9.2784896875,5.10575575,8.7417916875,5.34738075,8.321364687500001C5.58900475,7.9009377875,6.12570375,7.7559902875,6.54612875,7.9976146875L13.72987875,12.1363596875L21.46486875,7.9801146875Z"
                fill-opacity="1" />
        </g>
    </g>
</svg>