<svg xmlns="http://www.w3.org/2000/svg" xmlns:xlink="http://www.w3.org/1999/xlink"  version="1.1" width="22" height="22" viewBox="0 0 22 22"><defs><clipPath id="master_svg0_219_654928"><rect x="0" y="0" width="22" height="22" rx="0"/></clipPath></defs><g clip-path="url(#master_svg0_219_654928)"><g><path d="M15.949,8.00054C15.949,4.667400000000001,13.2824,2,9.94709,2C6.61182,2,3.94602,4.66722,3.94602,8.00054C3.94602,10.26707,5.146129999999999,12.1999,7.01322,13.1992C4.4099900000000005,14.2221,2.5220409999999998,16.4874,2.012624,19.1995C1.9459613,19.533,2.146128,19.9333,2.5464599999999997,20L2.675864,20C3.00971,20,3.27672,19.7998,3.3432,19.4663C3.93247,16.3523,6.66012,14.0708,9.878820000000001,13.9996L10.01233,13.9996C13.2143,13.9996,15.9483,11.26665,15.9483,8.00018L15.949,8.00054ZM5.27838,8.00054C5.27838,5.40015,7.34582,3.3329,9.94709,3.3329C12.5484,3.3329,14.6156,5.40015,14.6156,8.00054C14.6156,10.53318,12.5482,12.6001,10.01375,12.6669L9.81359,12.6669C7.27916,12.5332,5.27838,10.46652,5.27838,8.00054ZM14.5488,13.9998C14.5488,14.4,14.8158,14.6668,15.2161,14.6668L18.5501,14.6668C18.9505,14.6668,19.2175,14.4,19.2175,13.9998C19.2175,13.5997,18.9505,13.3328,18.5501,13.3328L15.2161,13.3328C14.8824,13.3328,14.5488,13.6007,14.5488,13.9998ZM18.5501,15.9332L13.2155,15.9332C12.8152,15.9332,12.5482,16.200200000000002,12.5482,16.6004C12.5482,17.000500000000002,12.8152,17.267400000000002,13.2155,17.267400000000002L18.5501,17.267400000000002C18.9505,17.267400000000002,19.2175,17.000500000000002,19.2175,16.6004C19.2175,16.200200000000002,18.9505,15.9332,18.5501,15.9332ZM18.5501,18.6004L13.2822,18.6004C12.8817,18.6004,12.6148,18.8673,12.6148,19.2676C12.6148,19.6679,12.8817,19.9332,13.2822,19.9332L18.5501,19.9332C18.9505,19.9332,19.2175,19.6662,19.2175,19.2662C19.2175,18.8662,18.8838,18.599,18.5501,18.599L18.5501,18.6004Z"  /></g></g></svg>