<svg xmlns="http://www.w3.org/2000/svg" xmlns:xlink="http://www.w3.org/1999/xlink" fill="none" version="1.1" width="24" height="24" viewBox="0 0 24 24"><defs><clipPath id="master_svg0_379_33729"><rect x="0" y="0" width="24" height="24" rx="0"/></clipPath></defs><g clip-path="url(#master_svg0_379_33729)"><g><path d="M18.956400000000002,13.0432L13.0437,13.0432L13.0437,18.9568C13.0437,19.533099999999997,12.57632,20,12.00003,20C11.42375,20,10.95637,19.533099999999997,10.95637,18.9568L10.95637,13.0432L5.0436700000000005,13.0432C4.466911,13.0432,4,12.57629,4,11.99999C4,11.42393,4.466965,10.956800000000001,5.0436700000000005,10.956800000000001L10.95634,10.956800000000001L10.95634,5.04319C10.95634,4.467125,11.42371,4,11.99999,4C12.57629,4,13.04366,4.467143,13.04366,5.04319L13.04366,10.95682L18.9563,10.95682C19.533099999999997,10.95682,20,11.42393,20,11.999970000000001C20,12.57625,19.533099999999997,13.04315,18.956400000000002,13.0432L18.956400000000002,13.0432Z" fill="#FFFFFF" fill-opacity="1"/></g></g></svg>