<svg xmlns="http://www.w3.org/2000/svg" xmlns:xlink="http://www.w3.org/1999/xlink" fill="none" version="1.1" width="24" height="24" viewBox="0 0 24 24"><defs><clipPath id="master_svg0_219_835228"><rect x="0" y="0" width="24" height="24" rx="0"/></clipPath></defs><g clip-path="url(#master_svg0_219_835228)"><g><path d="M19.6237,18.686004687500002C19.6237,18.686004687500002,19.6237,8.877534687499999,19.6237,8.877534687499999C19.6237,8.877534687499999,14.13978,3.7998046875,14.13978,3.7998046875C14.13978,3.7998046875,6.82796,3.7998046875,6.82796,3.7998046875C5.822581,3.7998046875,5.00913999,4.5614646875,5.00913999,5.4923846874999995C5.00913999,5.4923846874999995,5,19.0330046875,5,19.0330046875C5,19.9639046875,5.813441,20.7256046875,6.8188200000000005,20.7256046875C6.8188200000000005,20.7256046875,17.7957,20.7256046875,17.7957,20.7256046875C18.207,20.7256046875,18.5726,20.5986046875,18.8833,20.3871046875C18.8833,20.3871046875,14.83441,16.6380046875,14.83441,16.6380046875C14.10322,17.0781046875,13.24409,17.340404687499998,12.31183,17.340404687499998C9.78925,17.340404687499998,7.74194,15.4447046875,7.74194,13.1089846875C7.74194,10.7732246875,9.78925,8.877534687499999,12.31183,8.877534687499999C14.83441,8.877534687499999,16.881700000000002,10.7732246875,16.881700000000002,13.1089846875C16.881700000000002,13.9722046875,16.598399999999998,14.7677046875,16.1231,15.4363046875C16.1231,15.4363046875,19.6237,18.686004687500002,19.6237,18.686004687500002ZM9.569890000000001,13.1089846875C9.569890000000001,14.5138046875,10.79462,15.6478046875,12.31183,15.6478046875C13.82903,15.6478046875,15.0538,14.5138046875,15.0538,13.1089846875C15.0538,11.704144687500001,13.82903,10.5701146875,12.31183,10.5701146875C10.79462,10.5701146875,9.569890000000001,11.704144687500001,9.569890000000001,13.1089846875Z" fill="#000000" fill-opacity="1"/></g></g></svg>